/* XPM */
static xpm_string_t arcade_4_xpm[] = {
"50 50 8 1",
" 	c None",
".	c #000000",
"+	c #F7F7F7",
"@	c #D6D6D6",
"#	c #D2D2D2",
"$	c #030303",
"%	c #D5D5D5",
"&	c #020202",
"                   .................              ",
"                   .................              ",
"                   .................              ",
"                   .................              ",
"                   .................              ",
"                   .....++++++++....              ",
"             ...........++++++++....              ",
"             ...........++++++++....              ",
"             ...........++++++++....              ",
"             ...........++++++++....              ",
"             ...........++++++++....              ",
"             .....@@@@@@@@@@@@@@....              ",
"             .....@@@@@@@@@@@@@@....              ",
"          ........@@@@@@@@@@@@@@....              ",
"       ...........@@@@@@@@@@@@@@....              ",
"       ...........@@@@@@@@@@@@@@....              ",
"       ...........@@@@@@@@@@@@@@....              ",
"       ...........@@@@@@@@@@@@@@....              ",
"       .....@@@@@@@@@@@@@@@@@@@@....              ",
" ...........@@@@@@@@@@@@@@@@@@@@....              ",
" ...........@@@@@@@@@@@@@@@@@@@@....              ",
" ...........@@@@@@@@@@@@@@@@@@@@....              ",
" ...........@@@@@@@@@@@@@@@@@@@@....              ",
" ...........@@@@@@@@@@@@@@@@@@@@....              ",
"  ....@@@@@@@#@@@@@@@@@@@@@@@@@@....              ",
"  ...$@@@@@@@@@@@@@.......@@@@@@..................",
"  ...$@@@@@@@@@@@@%.......@@@@@@..................",
"  ...$@@@@@@@@@@@@%.......@@@@@@..................",
"  ...$@@@@@@@@@@@@%.......%@@@@@..................",
"  ...$@@@@@@@@@@@@%.......%@@@@@..................",
"  ...$@@@@@@@@@@@@%.......%@@@@@@@@@@@@@@@@@@.....",
"  ...$@@@@@@@@@@@@%.......%@@@@@@@@@@@@@@@@@@.....",
"  ...$@@@@@@@@@@@@@@@@@@@@@@@@@@@@@@@@@@@@@@@.....",
"  ...$@@@@@@@@@@@@@@@@@@@@@@@@@@@@@@@@@@@@@@@.....",
"  ...$@@@@@@@@@@@@@@@@@@@@@@@@@@@@@@@@@@@@@@@.....",
"  ...$@@@@@@@@@@@@@@@@@@@@@@@@@@@@@@@@@@@@@@@.....",
"  ...$@@@@@@@@@@@@@@@@@@@@@@@@@@@@@@@@@@@@@@@.....",
"  ...&@@@@@@@@@@@@@@@@@@@@@@@@@@@@@@@@@@@@@@@.....",
" .................@@@@@@@@@@@@@@..................",
" .................@@@@@@@@@@@@@@..................",
" .................@@@@@@@@@@@@@@..................",
" .................@@@@@@@@@@@@@@..................",
" .................@@@@@@@@@@@@@@..................",
"             .....@@@@@@@@@@@@@@....              ",
"             .....@@@@@@@@@@@@@@....              ",
"             .......................              ",
"             .......................              ",
"             .......................              ",
"             .......................              ",
"             .......................              "};
