/* XPM */
static xpm_string_t arcade_heart_xpm[] = {
"52 48 9 1",
" 	c None",
".	c #000000",
"+	c #000004",
"@	c #E92D2E",
"#	c #FFFFFF",
"$	c #A51D21",
"%	c #A41D21",
"&	c #A91E22",
"*	c #ED2E2F",
"                                                    ",
"         ..+......+...        ...++++++++++.        ",
"      .....+......+...        ...++++++++++..       ",
"    .......@@@@@@@@...+..  ......@@@@@@@@++....     ",
"    ...@@@@######@@@@@@......@@@@######@@@@@@...    ",
"   ....@@@#######@@@@@@......@@@#######@@@@@@....   ",
"   ..@@@#########@@@@@@@@..@@#######@@@@@@@@@@@..   ",
"  ...@@##########@@@@@@@@++@@######@@@@@@@@@@@@...  ",
"  ...@@#######@@@@@@@@@@@@@@@#####@@@@@@@@@@@@@...  ",
" ...@@#######@@@@@@@@@@@@@@@#####@@@@@@@@@@@@@@...  ",
" ++@@#######@@@@@@@@@@@@@@@#####@@@@@@@@@@@@@@@.... ",
" ++@@######@@@@@@@@@@@@@@@@####@@@@@@@@@@@@@@@@$... ",
" ++@@#####@@@@@@@@@@@@@@@@@@@@@@@@@@@@@@@@@@@@@$$.. ",
" ++@@####@@@@@@@@@@@@@@@@@@@@@@@@@@@@@@@@@@@@@$$$.. ",
" ++@@####@@@@@@@@@@@@@@@@@@@@@@@@@@@@@@@@@@@@@$$$.. ",
" ++@@@@@@@@@@@@@@@@@@@@@@@@@@@@@@@@@@@@@@@@@@%$$$.. ",
" ++@@@@@@@@@@@@@@@@@@@@@@@@@@@@@@@@@@@@@@@@@@%$$$.. ",
" ++@@@@@@@@@@@@@@@@@@@@@@@@@@@@@@@@@@@@@@@@@@%$$$.. ",
" ++@@@@@@@@@@@@@@@@@@@@@@@@@@@@@@@@@@@@@@@@@@%$$$.. ",
" ++@@@@@@@@@@@@@@@@@@@@@@@@@@@@@@@@@@@@@@@@@$$$$$.. ",
" ..@@@@@@@@@@@@@@@@@@@@@@@@@@@@@@@@@@@@@@@@@$$$$$.. ",
" ...@@@@@@@@@@@@@@@@@@@@@@@@@@@@@@@@@@@@@@@$$$$...  ",
"  ...@@@@@@@@@@@@@@@@@@@@@@@@@@@@@@@@@@@@@@$$$$...  ",
"  ...@@@@@@@@@@@@@@@@@@@@@@@@@@@@@@@@@@@@@@$$$$...  ",
"  ...@@@@@@@@@@@@@@@@@@@@@@@@@@@@@@@@@@@@@$$$$$...  ",
"   ..@@@@@@@@@@@@@@@@@@@@@@@@@@@@@@@@@@@@$$$$$$..   ",
"   ...@@@@@@@@@@@@@@@@@@@@@@@@@@@@@@@@@@$$$$$....   ",
"    ...@@@@@@@@@@@@@@@@@@@@@@@@@@@@@@@@$$$$&&...    ",
"     ...@@@@@@@@@@@@@@@@@@@@@@@@@@@@@@@$$$$....     ",
"      ...%%@@@@@@@@@@@@@@@@@@@@@@@@@@@%$$$$...      ",
"       ..$$@@@@@@@@@@@@@@@@@@@@@@@@@@$$$$$$..       ",
"        ..$$$$@@@@@@@@@@@@@@@@@@@@@@$$$$$...        ",
"        ...$$$$@@@@@@@@@@@@@@@@@@@@$$$$$$...        ",
"         ...$%$$$$@@@@@@@@@@@@@@$$$$$$$....         ",
"          ...$&$$$$@@@@@@@@@@@*$$$$$$&&...          ",
"           ....$$$$$$$@@@@@$$$$$$$$$$....           ",
"            ....$$$$$$$$@@$$$$$$$$$....             ",
"             ....$$$$$$$$$$$$$$$$$$....             ",
"              .....$$$$$$$$$$$$$$.....              ",
"                ...$$$$$$$$$$$$$$...                ",
"                 ....$$$$$$$$$$....                 ",
"                  ....$$$$$&&&....                  ",
"                   .....$$$$.....                   ",
"                    .....%%.....                    ",
"                      .........                     ",
"                       ......                       ",
"                        ....                        ",
"                                                    "};
