/* XPM */
static xpm_string_t arcade_shot_xpm[] = {
"20 20 5 1",
" 	c None",
".	c #D07000",
"+	c #F0D000",
"@	c #FFF4AC",
"#	c #FFFFFF",
"     ....           ",
"     ..........     ",
"     ..++++++....   ",
"  .....++++++.....  ",
". ..@@@@@@@@@@@@..  ",
"....@@@@@@@@@@@@....",
"....@@@@@@@@@@@@....",
"..++@@@######@@@++..",
"..++@@@######@@@++..",
"..++@@@######@@@++..",
"..++@@@######@@@++..",
"..++@@@######@@@++..",
"..++@@@######@@@++..",
"....@@@@@@@@@@@@....",
"....@@@@@@@@@@@@....",
"   .@@@@@@@@@@@@. ..",
"  .....++++++....   ",
"   . ..++++++.. ..  ",
"    ............    ",
"    ............    "};
