/* XPM */
static xpm_string_t arcade_9_xpm[] = {
"50 50 7 1",
" 	c None",
".	c #000000",
"+	c #F7F7F7",
"@	c #D6D6D6",
"#	c #020202",
"$	c #030303",
"%	c #D3D3D3",
"        ...................................       ",
"        ...................................       ",
"        ...................................       ",
"        ...................................       ",
"        ...................................       ",
"        .....++++++++@@@@@@@@@@@@@@@@@.....       ",
"        .....++++++++@@@@@@@@@@@@@@@@@.....       ",
"        .....++++++++@@@@@@@@@@@@@@@@@............",
"  ...........++++++++@@@@@@@@@@@@@@@@@............",
"  ...........++++++++@@@@@@@@@@@@@@@@@............",
"  ...........++++++++@@@@@@@@@@@@@@@@@............",
"  ...........++++++++@@@@@@@@@@@@@@@@@............",
"  ...#.......++++++++@@@@@@@@@@@@@@@@@@@@@@@@.....",
"  ...$@@@@@@@..................@@@@@@@@@@@@@@.....",
"  ...$@@@@@@@..................@@@@@@@@@@@@@@.....",
"  ...$@@@@@@@..................@@@@@@@@@@@@@@.....",
"  ...$@@@@@@@..................@@@@@@@@@@@@@@.....",
"  ...$@@@@@@@..................@@@@@@@@@@@@@@.....",
"  ...$@@@@@@@.................$@@@@@@@@@@@@@@.....",
"  ...$@@@@@@@.................$@@@@@@@@@@@@@@.....",
"  ...$@@@@@@@..................@@@@@@@@@@@@@@.....",
"  ...$@@@@@@@..................@@@@@@@@@@@@@@.....",
"  ...$@@@@@@@..................@@@@@@@@@@@@@@.....",
"  ...$@@@@@@@..................@@@@@@@@@@@@@@.....",
"  ...$@@@@@@@..................@@@@@@@@@@@@@@.....",
"  ...........@@@@@@@@@@@@@@@@@@@@@@@@@@@@@@@@.....",
" ............@@@@@@@@@@@@@@@@@@@@@@@@@@@@@@@@.....",
" ............@@@@@@@@@@@@@@@@@@@@@@@@@@@@@@@@.....",
" ............@@@@@@@@@@@@@@@@@@@@@@@@@@@@@@@@.....",
" ............@@@@@@@@@@@@@@@@@@@@@@@@@@@@@@@@.....",
" ............@@@@@@@@@@@@@@@@@@@@@@@@@@@@@@@@.....",
"       ......@@@@@@@@@@@@@@@@@@@@@@@@@@@@@@@@.....",
"       ........................@@@@@@@@@@@@@@.....",
"       ........................@@@@@@@@@@@@@@.....",
"       ........................@@@@@@@@@@@@@@.....",
"       ........................@@@@@@@@@@@@@@.....",
"       ........................@@@@@@@@@@@@@@.....",
"       .....@@@@@@@@@@@@@@@@@@@@@@@@@%@@@@@@@.....",
"       .....@@@@@@@@@@@@@@@@@@@@@@@@@@............",
"       .....@@@@@@@@@@@@@@@@@@@@@@@@@@............",
"       .....@@@@@@@@@@@@@@@@@@@@@@@@@@............",
"       .....@@@@@@@@@@@@@@@@@@@@@@@@@@............",
"       .....@@@@@@@@@@@@@@@@@@@@@@@@@@............",
"       .....@@@@@@@@@@@@@@@@@@@@@@@@@@.....       ",
"       .....@@@@@@@@@@@@@@@@@@@@@@@@@@.....       ",
"       ....................................       ",
"       ....................................       ",
"       ....................................       ",
"       ....................................       ",
"       ....................................       "};
