/* XPM */
static xpm_string_t arcade_8_xpm[] = {
"50 50 9 1",
" 	c None",
".	c #000000",
"+	c #F7F7F7",
"@	c #D6D6D6",
"#	c #D2D2D2",
"$	c #D1D1D1",
"%	c #D4D4D4",
"&	c #D3D3D3",
"*	c #D5D5D5",
"       ....................................       ",
"       ....................................       ",
"       ....................................       ",
"       ....................................       ",
"       ....................................       ",
"       .....+++++++@@@@@@@@@@@@@@@@@@@.....       ",
"       .....+++++++@@@@@@@@@@@@@@@@@@@.....       ",
" ..... .....+++++++@@@@@@@@@@@@@@@@@@@............",
" ...........+++++++@@@@@@@@@@@@@@@@@@@............",
" ...........+++++++@@@@@@@@@@@@@@@@@@@............",
" ...........+++++++@@@@@@@@@@@@@@@@@@@............",
" ...........+++++++@@@@@@@@@@@@@@@@@@@............",
" .....@@@@@@@@@@@@@@@@@@@@@@@@@@@@@@@@@@@@@@@.....",
" .....@@@@@@@@@@@@@@...........@@@@@@@@@@@@@@.....",
" .....@@@@@@@@@@@@@@...........@@@@@@@@@@@@@@.....",
" .....@@@@@@@@@@@@@@...........@@@@@@@@@@@@@@.....",
" .....@@@@@@@@@@@@@@...........@@@@@@@@@@@@@@.....",
" .....@@@@@@@@@@@@@@...........@@@@@@@@@@@@@@.....",
" .....@@@@@@@@@@@@@@@@@@@@@@@@@@@@@@@@@@@@@@@.....",
"      .......#@@@@@@@@@@@@@@@@@@@@@@@@.......     ",
"      .......$@@@@@@@@@@@@@@@@@@@@@@@@.......     ",
"      .......$@@@@@@@@@@@@@@@@@@@@@@@@.......     ",
"      .......$@@@@@@@@@@@@@@@@@@@@@@@@.......     ",
"      .......$@@@@@@@@@@@@@@@@@@@@@@@@.......     ",
"      .......#@@@@@%&&&&&&&&&&&*@@@@@@.......     ",
" .....@@@@@@@@@@@@*.............@@@@@@@@@@@@@.....",
" .....@@@@@@@@@@@@*.............@@@@@@@@@@@@@.....",
" .....@@@@@@@@@@@@*.............@@@@@@@@@@@@@.....",
" .....@@@@@@@@@@@@*.............@@@@@@@@@@@@@.....",
" .....@@@@@@@@@@@@*.............@@@@@@@@@@@@@.....",
" .....@@@@@@@@@@@@*.............@@@@@@@@@@@@@.....",
" .....@@@@@@@@@@@@*.............@@@@@@@@@@@@@.....",
" .....@@@@@@@@@@@@*.............@@@@@@@@@@@@@.....",
" .....@@@@@@@@@@@@*.............@@@@@@@@@@@@@.....",
" .....@@@@@@@@@@@@*.............@@@@@@@@@@@@@.....",
" .....@@@@@@@@@@@@*.............@@@@@@@@@@@@@.....",
" .....@@@@@@@@@@@@*.............@@@@@@@@@@@@@.....",
" .....@@@@@@@@@@@@@@@@@@@@@@@@@@@@@@@@@@@@@@@.....",
" ...........@@@@@@@@@@@@@@@@@@@@@@@@@@............",
" ...........@@@@@@@@@@@@@@@@@@@@@@@@@@............",
" ...........@@@@@@@@@@@@@@@@@@@@@@@@@@............",
" ...........@@@@@@@@@@@@@@@@@@@@@@@@@@............",
" ...........@@@@@@@@@@@@@@@@@@@@@@@@@@............",
"       .....@@@@@@@@@@@@@@@@@@@@@@@@@@.....       ",
"       .....@@@@@@@@@@@@@@@@@@@@@@@@@@.....       ",
"       ....................................       ",
"       ....................................       ",
"       ....................................       ",
"       ....................................       ",
"       ....................................       "};
