/* XPM */
static xpm_string_t arcade_3_xpm[] = {
"50 50 10 1",
" 	c None",
".	c #000000",
"+	c #F7F7F7",
"@	c #D6D6D6",
"#	c #141414",
"$	c #D5D5D5",
"%	c #030303",
"&	c #2C2C2C",
"*	c #3E3E3E",
"=	c #2B2B2B",
" .................................................",
" .................................................",
" .................................................",
" .................................................",
" .................................................",
" .....++++++++@@@@@@@@@@@@@@@@@@@@@@@@@@@@@@@.....",
" .....++++++++@@@@@@@@@@@@@@@@@@@@@@@@@@@@@@@.....",
" .....++++++++@@@@@@@@@@@@@@@@@@@@@@@@@@@@@@@.....",
" .....++++++++@@@@@@@@@@@@@@@@@@@@@@@@@@@@@@@.....",
" .....++++++++@@@@@@@@@@@@@@@@@@@@@@@@@@@@@@@.....",
" .....++++++++@@@@@@@@@@@@@@@@@@@@@@@@@@@@@@@.....",
" .....++++++++@@@@@@@@@@@@@@@@@@@@@@@@@@@@@@@.....",
" .....++++++++@@@@@@@@@@@@@@@@@@@@@@@@@@@@@@@.....",
" ..............................@@@@@@@......#.....",
" ..............................@@@@@@@............",
" ..............................@@@@@@@............",
" ..............................@@@@@@@............",
"  .............................@@@@@@@............",
"             .....@@@@@@@@@@@@@@@@@@@@............",
"             .....@@@@@@@@@@@@@@@@@@@@............",
"             .....@@@@@@@@@@@@@@@@@@@@............",
"             .....@@@@@@@@@@@@@@@@@@@@............",
"             .....@@@@@@@@@@@@@@@@@@@@............",
"             .....@@@@@@@@@@@@@@@@@@@@............",
"             .....@@@@@@@@@@@@@@@@@@@@............",
"             ..................@@@@@@$@@@@@@@.....",
" ..............................@@@@@@@@@@@@@@.....",
" ..............................@@@@@@@@@@@@@@.....",
" ..............................@@@@@@@@@@@@@@.....",
" ..............................@@@@@@@@@@@@@@.....",
" .............................%@@@@@@@@@@@@@@.....",
" .....@@@@@@@&................%@@@@@@@@@@@@@@.....",
" .....@@@@@@@&................%@@@@@@@@@@@@@@.....",
" .....@@@@@@@&................%@@@@@@@@@@@@@@.....",
" .....@@@@@@@&................%@@@@@@@@@@@@@@.....",
" .....@@@@@@@&................%@@@@@@@@@@@@@@.....",
" .....@@@@@@@*================&@@@@@@@@@@@@@@.....",
" .....@@@@@@@@@@@@@@@@@@@@@@@@@@@@@@@@@@@@@@@.....",
" ...........@@@@@@@@@@@@@@@@@@@@@@@@@@......#.....",
" ...........@@@@@@@@@@@@@@@@@@@@@@@@@@............",
" ...........@@@@@@@@@@@@@@@@@@@@@@@@@@............",
" ...........@@@@@@@@@@@@@@@@@@@@@@@@@@............",
"  ..........@@@@@@@@@@@@@@@@@@@@@@@@@@............",
"       .....@@@@@@@@@@@@@@@@@@@@@@@@@@.....       ",
"       ..... @@@@@@@@@@@@@@@@@@@@@@@@@#....       ",
"       ..... ..............................       ",
"       ..... ..............................       ",
"       ..... ..............................       ",
"       ..... ..............................       ",
"       ..... ..............................       "};
