/* XPM */
static xpm_string_t arcade_slash_xpm[] = {
"50 50 5 1",
" 	c None",
".	c #000000",
"+	c #F7F7F7",
"@	c #D6D6D6",
"#	c #D5D5D5",
"                          ..................      ",
"                          ..................      ",
"                          ..................      ",
"                          ..................      ",
"                          ..................      ",
"                          ..................      ",
"                   ...... .....+++++++............",
"                   ............+++++++............",
"                   ............+++++++............",
"                   ............+++++++............",
"                   ............+++++++............",
"                   ............+++++++............",
"            .............@@@@@@@@@@@@@@@@@@@......",
"            .............@@@@@@@@@@@@@@@@@@@......",
"            .............@@@@@@@@@@@@@@@@@@@......",
"            .............@@@@@@@@@@@@@@@@@@@......",
"            .............@@@@@@@@@@@@@@@@@@@......",
"            .............@@@@@@@@@@@@@@@@@@@......",
"            ......@@@@@@@@@@@@@@@@@@@@@@@@@@......",
"      ............@@@@@@@@@@@@@@@@@@@@............",
"      ............@@@@@@@@@@@@@@@@@@@@............",
"      ............@@@@@@@@@@@@@@@@@@@@............",
"      ............@@@@@@@@@@@@@@@@@@@@............",
"      ............@@@@@@@@@@@@@@@@@@@@............",
"      ............@@@@@@@@@@@@@##@@@@@......      ",
"      ......@@@@@##@@@@@@@@@@@@@............      ",
"............@@@@@@@@@@@@@@@@@@@@............      ",
"............@@@@@@@@@@@@@@@@@@@@............      ",
"............@@@@@@@@@@@@@@@@@@@@............      ",
"............@@@@@@@@@@@@@@@@@@@@............      ",
"............@@@@@@@@@@@@@@@@@@@@............      ",
"......@@@@@@@@@@@@@@@@@@#@@@@@@@......            ",
"......@@@@@@@@@@@@@@@@@@#.............            ",
"......@@@@@@@@@@@@@@@@@@@.............            ",
"......@@@@@@@@@@@@@@@@@@@.............            ",
"......@@@@@@@@@@@@@@@@@@@.............            ",
"......@@@@@@@@@@@@@@@@@@@.............            ",
"......@@@@@@@@@@@@@@@@@@@.............            ",
"............@@@@@@@............                   ",
"............@@@@@@@............                   ",
"............@@@@@@@............                   ",
"............@@@@@@@............                   ",
"............@@@@@@@............                   ",
"............@@@@@@@............                   ",
"      ..................                          ",
"      ..................                          ",
"      ..................                          ",
"      ..................                          ",
"      ..................                          ",
"      ..................                          "};
