/* XPM */
static xpm_string_t arcade_6_xpm[] = {
"50 50 9 1",
" 	c None",
".	c #000000",
"+	c #F7F7F7",
"@	c #D6D6D6",
"#	c #F6F6F6",
"$	c #D3D3D3",
"%	c #030303",
"&	c #020202",
"*	c #141414",
"       ....................................       ",
"       ....................................       ",
"       ....................................       ",
"       ....................................       ",
"       ....................................       ",
"       .....+++++++@@@@@@@@@@@@@@@@@@@.....       ",
"       .....+++++++@@@@@@@@@@@@@@@@@@@.....       ",
" ...........+++++++@@@@@@@@@@@@@@@@@@@.....       ",
" ...........+++++++@@@@@@@@@@@@@@@@@@@....        ",
" ...........+++++++@@@@@@@@@@@@@@@@@@@.....       ",
" ...........+++++++@@@@@@@@@@@@@@@@@@@.....       ",
" ...........+++++##@@@@@$$$$$$$@@@@@@@.....       ",
" .....@@@@@@@@@@@@@........................       ",
" .....@@@@@@@@@@@@@........................       ",
" .....@@@@@@@@@@@@@........................       ",
" .....@@@@@@@@@@@@@........................       ",
" .....@@@@@@@@@@@@@........................       ",
" .....@@@@@@@@@@@@@........................       ",
" .....@@@@@@@@@@@@@@@@@@@@@@@@@@@@@@@@.....       ",
" .....@@@@@@@@@@@@@@@@@@@@@@@@@@@@@@@@.....       ",
" .....@@@@@@@@@@@@@@@@@@@@@@@@@@@@@@@@............",
" .....@@@@@@@@@@@@@@@@@@@@@@@@@@@@@@@@............",
" .....@@@@@@@@@@@@@@@@@@@@@@@@@@@@@@@@............",
" .....@@@@@@@@@@@@@@@@@@@@@@@@@@@@@@@@............",
" .....@@@@@@@@@@@@@@@@@@@@@@@@@@@@@@@@............",
" .....@@@@@@@@@@@@@..................@@@@@@@@.....",
" .....@@@@@@@@@@@@@..................@@@@@@@@.....",
" .....@@@@@@@@@@@@@..................@@@@@@@@.....",
" .....@@@@@@@@@@@@@..................@@@@@@@@.....",
" .....@@@@@@@@@@@@@..................@@@@@@@@.....",
" .....@@@@@@@@@@@@@..................@@@@@@@@.....",
" .....@@@@@@@@@@@@@..................@@@@@@@@.....",
" .....@@@@@@@@@@@@@..................@@@@@@@@.....",
" .....@@@@@@@@@@@@@..................@@@@@@@@.....",
" .....@@@@@@@@@@@@@..................@@@@@@@@.....",
"  ...%@@@@@@@@@@@@@..................@@@@@@@@.....",
"  ...%@@@@@@@@@@@@@..................@@@@@@@@.....",
"  ...&@@@@@@@@@@@@@@@@@@@@@@@@@@@@@@@@@@@@@@@.....",
"  ..........@@@@@@@@@@@@@@@@@@@@@@@@@@............",
"  ..........@@@@@@@@@@@@@@@@@@@@@@@@@@............",
"  ..........@@@@@@@@@@@@@@@@@@@@@@@@@@............",
"  ..........@@@@@@@@@@@@@@@@@@@@@@@@@@............",
"  ..........@@@@@@@@@@@@@@@@@@@@@@@@@@............",
"       .....@@@@@@@@@@@@@@@@@@@@@@@@@@.....       ",
"       .....@@@@@@@@@@@@@@@@@@@@@@@@@@*....       ",
"       ....................................       ",
"       ....................................       ",
"       ....................................       ",
"       ....................................       ",
"        ...................................       "};
