/* XPM */
static xpm_string_t arcade_7_xpm[] = {
"50 50 7 1",
" 	c None",
".	c #000000",
"+	c #010101",
"@	c #F7F7F7",
"#	c #D6D6D6",
"$	c #040404",
"%	c #030303",
"  ................................................",
"  ................................................",
"  ................................................",
"  ................................................",
"  ................................................",
"  ...+@@@@@@@@###############################.....",
"  ...$@@@@@@@@###############################.....",
"  ...$@@@@@@@@###############################.....",
"  ...$@@@@@@@@###############################.....",
"  ...$@@@@@@@@###############################.....",
"  ...$@@@@@@@@###############################.....",
"  ...$@@@@@@@@###############################.....",
"  ...%@@@@@@@@###############################.....",
"  .............................##############.....",
"  .............................##############.....",
"  .............................##############.....",
"  .............................##############.....",
"  .............................##############.....",
"              ...........####################.....",
"              ...........#############.....%+.....",
"              ...........#############............",
"              ...........#############............",
"              ...........#############............",
"              ...........#############.....       ",
"              ...........#############.....       ",
"       ............###################.....       ",
"       ............#############...........       ",
"       ............#############...........       ",
"       ............#############...........       ",
"       ............#############...........       ",
"       .....####################...........       ",
"       .....####################.....             ",
"       .....##############...........             ",
"       .....##############...........             ",
"       .....##############...........             ",
"       .....##############...........             ",
"       .....##############...........             ",
"       .....##############.....                   ",
"       .....##############.....                   ",
"       .....##############.....                   ",
"       .....##############.....                   ",
"       .....##############.....                   ",
"       .....##############.....                   ",
"       .....##############.....                   ",
"       .....##############.....                   ",
"       ........................                   ",
"       ........................                   ",
"       ........................                   ",
"       ........................                   ",
"       ........................                   "};
