/* XPM */
static xpm_string_t arcade_dots_xpm[] = {
"50 50 6 1",
" 	c None",
".	c #0E130F",
"+	c #D6D6D6",
"@	c #FFFFFF",
"#	c #D9D9D9",
"$	c #FEFEFE",
"                                                  ",
"                                                  ",
"                                                  ",
"                                                  ",
"                                                  ",
"                                                  ",
"                      ......                      ",
"                      ......                      ",
"                      ......                      ",
"                   ...+++@@@...                   ",
"                   ...+++@@@...                   ",
"                   ...+++@@@...                   ",
"                   ...++++++...                   ",
"                   ...++++++...                   ",
"                   ...++++++...                   ",
"                      ......                      ",
"                      ......                      ",
"                      ......                      ",
"                                                  ",
"                                                  ",
"                                                  ",
"                                                  ",
"                                                  ",
"                                                  ",
"                                                  ",
"                                                  ",
"                                                  ",
"                                                  ",
"                                                  ",
"                                                  ",
"                                                  ",
"                      ......                      ",
"                      ......                      ",
"                      ......                      ",
"                   ...###$$$...                   ",
"                   ...###$$$...                   ",
"                   ...###$$$...                   ",
"                   ...######...                   ",
"                   ...######...                   ",
"                   ...######...                   ",
"                      ......                      ",
"                      ......                      ",
"                      ......                      ",
"                                                  ",
"                                                  ",
"                                                  ",
"                                                  ",
"                                                  ",
"                                                  ",
"                                                  "};
