/* XPM */
static xpm_string_t arcade_0_xpm[] = {
"50 50 42 1",
" 	c None",
".	c #000000",
"+	c #191919",
"@	c #818181",
"#	c #8C8C8C",
"$	c #7F7F7F",
"%	c #797979",
"&	c #6F6F6F",
"*	c #141414",
"=	c #333333",
"-	c #E3E3E3",
";	c #F6F6F6",
">	c #DFDFDF",
",	c #D5D5D5",
"'	c #C4C4C4",
")	c #2C2C2C",
"!	c #E4E4E4",
"~	c #F7F7F7",
"{	c #E0E0E0",
"]	c #D6D6D6",
"^	c #C5C5C5",
"/	c #202020",
"(	c #2B2B2B",
"_	c #444444",
":	c #C6C6C6",
"<	c #3E3E3E",
"[	c #040404",
"}	c #9A9A9A",
"|	c #C7C7C7",
"1	c #EBEBEB",
"2	c #F2F2F2",
"3	c #F1F1F1",
"4	c #D3D3D3",
"5	c #CFCFCF",
"6	c #030303",
"7	c #A7A7A7",
"8	c #D7D7D7",
"9	c #AAAAAA",
"0	c #A8A8A8",
"a	c #7E7E7E",
"b	c #020202",
"c	c #CACACA",
"        ...................................       ",
"        ...................................       ",
"        ...................................       ",
"        ...................................       ",
"        ...................................       ",
"        ...+@######$%%%%%%%%%%%%%%%%%&*....       ",
"        ...=-;;;;;;>,,,,,,,,,,,,,,,,,')....       ",
"  .........=!~~~~~~{]]]]]]]]]]]]]]]]]^)...........",
"  .........=!~~~~~~{]]]]]]]]]]]]]]]]]^)...........",
"  .........=!~~~~~~{]]]]]]]]]]]]]]]]]^)...........",
"  .........=!~~~~~~{]]]]]]]]]]]]]]]]]^)...........",
"  ..../((((_!~~~~~~{]]]]]]]]]]]]]]]]]:<(((((*.....",
"  ...[}^^^^|12222234^^^^^^^^^^^5]]]]]4:^^^^'&.....",
"  ...67]]]]]888888]$(((((((((()9]]]]]]]]]]],%.....",
"  ...67]]]]]]]]]]],%..........60]]]]]]]]]]],%.....",
"  ...67]]]]]]]]]]],%..........60]]]]]]]]]]],%.....",
"  ...67]]]]]]]]]]],%..........60]]]]]]]]]]],%.....",
"  ...60]]]]]]]]]]],%..........60]]]]]]]]]]],%.....",
"  ...60]]]]]]]]]]],%..........60]]]]]]]]]]],%.....",
"  ...60]]]]]]]]]]],%..........60]]]]]]]]]]],%.....",
"  ...60]]]]]]]]]]],%..........60]]]]]]]]]]],%.....",
"  ...60]]]]]]]]]]],%..........60]]]]]]]]]]],%.....",
"  ...60]]]]]]]]]]],%..........60]]]]]]]]]]],%.....",
"  ...60]]]]]]]]]]],%..........60]]]]]]]]]]],%.....",
"  ...60]]]]]]]]]]],%..........60]]]]]]]]]]],%.....",
"  ...60]]]]]]]]]]],%..........60]]]]]]]]]]],%.....",
"  ...60]]]]]]]]]]],%..........60]]]]]]]]]]],%.....",
"  ...60]]]]]]]]]]],%..........60]]]]]]]]]]],%.....",
"  ...60]]]]]]]]]]],%..........60]]]]]]]]]]],%.....",
"  ...60]]]]]]]]]]],%..........60]]]]]]]]]]],%.....",
"  ...60]]]]]]]]]]],%..........60]]]]]]]]]]],%.....",
"  ...60]]]]]]]]]]],%..........60]]]]]]]]]]],%.....",
"  ...60]]]]]]]]]]],%..........60]]]]]]]]]]],%.....",
"  ...67]]]]]]]]]]],%..........60]]]]]]]]]]],%.....",
"  ...67]]]]]]]]]]],%..........60]]]]]]]]]]],%.....",
"  ...67]]]]]]]]]]],%..........60]]]]]]]]]]],%.....",
"  ...67]]]]]]]]]]],a(((((((((()9]]]]]]]]]]],%.....",
"  ...b}^^^^:4]]]]]]c^^^^^^^^^^^5]]]]]4:^^^^'&.....",
"  ..../((((<:]]]]]]]]]]]]]]]]]]]]]]]]:<(((((*.....",
"  .........(^]]]]]]]]]]]]]]]]]]]]]]]]^)...........",
"  .........(^]]]]]]]]]]]]]]]]]]]]]]]]^)...........",
"  .........(^]]]]]]]]]]]]]]]]]]]]]]]]^)...........",
"  .........(^]]]]]]]]]]]]]]]]]]]]]]]]^)...........",
"        ...(',,,,,,,,,,,,,,,,,,,,,,,,')....       ",
"        ...*&%%%%%%%%%%%%%%%%%%%%%%%%&*....       ",
"        ...................................       ",
"        ...................................       ",
"        ...................................       ",
"        ...................................       ",
"        ...................................       "};
