/* XPM */
static xpm_string_t crosshair_xpm[] = {
"80 80 6 1",
" 	c None",
".	c #000000",
"+	c #131313",
"@	c #121212",
"#	c #111111",
"$	c #141414",
"                                      ....                                      ",
"                                      ....                                      ",
"                                      ....                                      ",
"                                      ....                                      ",
"                                      ....                                      ",
"                                      ....                                      ",
"                                    ........                                    ",
"                                ................                                ",
"                             ......................                             ",
"                          .......     ....     .......                          ",
"                        ......        ....        ......                        ",
"                      .....           ....          ......                      ",
"                     ....             ....            .....                     ",
"                    ...               ....              .....                   ",
"                  ....                ....                ....                  ",
"                 ....                 ....                 ....                 ",
"                ....                  ....                  ....                ",
"               ....                 ........                 ....               ",
"              ....              ................              ....              ",
"             ....             ....................             ....             ",
"             ...            ......    ....    ......            ...             ",
"            ...            .....      ....      ....+            ...            ",
"           ...           .....        ....        ....            ...           ",
"           ...          ....          ....          ....          ...           ",
"          ...          ....           ....           ....          ...          ",
"          .@.         ....            ..@.            ....          ..          ",
"         ..@          ...             ..@.             ..@          ...         ",
"         ..          ..@              ....              ..+          ..         ",
"         ..         ...                                  ...         ..         ",
"        ...         ..                                   ...         ...        ",
"        ..         ...                                    ...         ..        ",
"        ..         ...                                    ...         ..        ",
"       ...        ...                                      ...        ...       ",
"       ...        +@.                                      ...        ...       ",
"       ..         @@                                        ..         ..       ",
"       ..         @@                                        ..         ..       ",
"      ...        .@@                                        ...        ..       ",
"      ...        .@#                                        ...        ...      ",
"............................                        ............................",
"............................                        ............................",
"............................                        ............................",
"............................                        ............................",
"      ...        ...                                        ...        @@.      ",
"      ...        ...                                        ...        @@.      ",
"       ..         ..                                        ..         @@       ",
"       ..         ...                                       ..         @+       ",
"       ...        ...                                       ..        .@+       ",
"       ...        ...                                      ..         ...       ",
"        ..         ...                                     ..         .@        ",
"        ..         ...                                    ..          .@        ",
"        ...         ...                                   ..         ...        ",
"        ...         ...                                  ..          ...        ",
"         ...         ...              ....              ...         ...         ",
"         ...          ...             ....             ...          ...         ",
"          ...         ....            ....             ..          ...          ",
"          ...          ....           ....            $..          ...          ",
"           ...          ....          ....          +@+           ...           ",
"           ...           .....        ....         @@+            ...           ",
"            ...            .....      ....       +@@@            ...            ",
"             ...            ......    ....     +@@+              ..             ",
"             ....             ............#@@@@@@              ....             ",
"              ....               ........@@#++@               ....              ",
"               ....                 ........                 ....               ",
"                ....                  ....                  ....                ",
"                 ....                 ....                 ....                 ",
"                  ....                ....                +...                  ",
"                   ...@.              ....              .....                   ",
"                     #..#.            ....            .....                     ",
"                      ....#.          ....          ......                      ",
"                        ......        ....        ......                        ",
"                          ........    ....     .......                          ",
"                             .......................                            ",
"                                ................                                ",
"                                    ........                                    ",
"                                      ....                                      ",
"                                      ....                                      ",
"                                      ....                                      ",
"                                      ....                                      ",
"                                      ....                                      ",
"                                      ....                                      "};
