/* XPM */
static xpm_string_t zombie_left_middle_xpm[] = {
"64 72 230 2",
"  	c None",
". 	c #161627",
"+ 	c #171827",
"@ 	c #6A352E",
"# 	c #161728",
"$ 	c #251C27",
"% 	c #6D3A32",
"& 	c #733B31",
"* 	c #71392F",
"= 	c #64332E",
"- 	c #36262D",
"; 	c #2C232C",
"> 	c #1B1728",
", 	c #572C2E",
"' 	c #6E382F",
") 	c #6B3632",
"! 	c #733633",
"~ 	c #4C2931",
"{ 	c #7D4234",
"] 	c #72362F",
"^ 	c #2C1C2C",
"/ 	c #744432",
"( 	c #8A4636",
"_ 	c #944D3A",
": 	c #9C533C",
"< 	c #95513C",
"[ 	c #8B4A35",
"} 	c #844435",
"| 	c #171828",
"1 	c #1A1C29",
"2 	c #1D242A",
"3 	c #833B34",
"4 	c #9B4335",
"5 	c #843634",
"6 	c #702A31",
"7 	c #3B1D2A",
"8 	c #5E312F",
"9 	c #8D4A39",
"0 	c #974836",
"a 	c #A45A3F",
"b 	c #AA593F",
"c 	c #B2523F",
"d 	c #B95843",
"e 	c #B86448",
"f 	c #B26545",
"g 	c #AD6243",
"h 	c #B46A46",
"i 	c #A55C40",
"j 	c #995941",
"k 	c #B07A52",
"l 	c #996547",
"m 	c #885134",
"n 	c #1F292B",
"o 	c #24332E",
"p 	c #463530",
"q 	c #9A3A38",
"r 	c #AA3D38",
"s 	c #8C3B34",
"t 	c #411E2B",
"u 	c #573832",
"v 	c #AA5D40",
"w 	c #C75746",
"x 	c #C44C41",
"y 	c #BA4A3E",
"z 	c #B9503F",
"A 	c #B96D49",
"B 	c #B9754D",
"C 	c #B56C49",
"D 	c #714955",
"E 	c #B88558",
"F 	c #DDB471",
"G 	c #CC9561",
"H 	c #A86647",
"I 	c #9D583F",
"J 	c #212D2C",
"K 	c #2B342D",
"L 	c #34342F",
"M 	c #3A3530",
"N 	c #5C3232",
"O 	c #78323B",
"P 	c #A34336",
"Q 	c #934435",
"R 	c #331D2D",
"S 	c #C2493F",
"T 	c #C37D51",
"U 	c #C0794E",
"V 	c #BC744C",
"W 	c #CAA46B",
"X 	c #DEB16E",
"Y 	c #D6A164",
"Z 	c #CD8D59",
"` 	c #362A32",
" .	c #4C3431",
"..	c #633432",
"+.	c #643B34",
"@.	c #AA4437",
"#.	c #BC443D",
"$.	c #C4433E",
"%.	c #D2694F",
"&.	c #D68459",
"*.	c #CE915B",
"=.	c #D68B5C",
"-.	c #C88957",
";.	c #DAA968",
">.	c #DAA466",
",.	c #D2955D",
"'.	c #C58253",
").	c #26272A",
"!.	c #7B3732",
"~.	c #CA423E",
"{.	c #CC4B42",
"].	c #CC624B",
"^.	c #D7835A",
"/.	c #E0A96C",
"(.	c #E1B671",
"_.	c #E2BB75",
":.	c #E6C57D",
"<.	c #854937",
"[.	c #7A3D33",
"}.	c #452D34",
"|.	c #432531",
"1.	c #B44C3D",
"2.	c #CD5346",
"3.	c #CE5C49",
"4.	c #D47353",
"5.	c #DB9B63",
"6.	c #D59C61",
"7.	c #48382F",
"8.	c #953B35",
"9.	c #CB4640",
"0.	c #D05C4A",
"a.	c #D77C58",
"b.	c #7A362F",
"c.	c #9B3B35",
"d.	c #A43C37",
"e.	c #61392F",
"f.	c #484A2D",
"g.	c #584B2E",
"h.	c #47272E",
"i.	c #191727",
"j.	c #E4BE79",
"k.	c #191B27",
"l.	c #6A4B2F",
"m.	c #435B2D",
"n.	c #634C2E",
"o.	c #A7493B",
"p.	c #D36C51",
"q.	c #DA9561",
"r.	c #E0B36F",
"s.	c #DDAC6B",
"t.	c #1C2327",
"u.	c #59572D",
"v.	c #4B632D",
"w.	c #41642D",
"x.	c #76532F",
"y.	c #54542D",
"z.	c #1F2927",
"A.	c #6A4631",
"B.	c #D1644D",
"C.	c #E3AF71",
"D.	c #52392E",
"E.	c #466D2D",
"F.	c #4B582D",
"G.	c #67562E",
"H.	c #795130",
"I.	c #55632C",
"J.	c #39552D",
"K.	c #D57B56",
"L.	c #263527",
"M.	c #3B472E",
"N.	c #43532D",
"O.	c #31462E",
"P.	c #39392E",
"Q.	c #4A6B2D",
"R.	c #D6965F",
"S.	c #334C2E",
"T.	c #3C5B2D",
"U.	c #36522D",
"V.	c #2A3C2D",
"W.	c #C98555",
"X.	c #DCA669",
"Y.	c #2D432E",
"Z.	c #2F492E",
"`.	c #3F612D",
" +	c #794934",
".+	c #27392D",
"++	c #314730",
"@+	c #47712D",
"#+	c #1F2133",
"$+	c #894B4D",
"%+	c #D98C5D",
"&+	c #231B2A",
"*+	c #C8684C",
"=+	c #C5734E",
"-+	c #D0704F",
";+	c #252739",
">+	c #9A4D3B",
",+	c #CB7752",
"'+	c #B3443B",
")+	c #532C31",
"!+	c #D05647",
"~+	c #672D34",
"{+	c #C53E3B",
"]+	c #B73D39",
"^+	c #1D1F30",
"/+	c #C93E3C",
"(+	c #BD4D40",
"_+	c #5B2D31",
":+	c #A2563D",
"<+	c #AC543E",
"[+	c #2F3446",
"}+	c #733A45",
"|+	c #843D46",
"1+	c #492730",
"2+	c #3B2131",
"3+	c #553947",
"4+	c #34384B",
"5+	c #3C4255",
"6+	c #361F31",
"7+	c #51586B",
"8+	c #5B6477",
"9+	c #646678",
"0+	c #494758",
"a+	c #705A67",
"b+	c #381F30",
"c+	c #362231",
"d+	c #AD5640",
"e+	c #657083",
"f+	c #AD443B",
"g+	c #FFFFFF",
"                                                                                                                                ",
"                            P c H 9                                                                                             ",
"                          [.<+].,+'.T H I i H i i H I : < _ 9 [ <.                                                              ",
"                    Q z w x ].p.&.q.>.Y Z '.*.*.Z *.*.*.*.Z Z -.T g 9 *                                                         ",
"                    #.w w ].0.4.q.&.5.s.s.Y 6.Y s.s.X X X X >.X.s.Y T i < <.*                                                   ",
"                    '+c.o.4.0.0.4.B.%.%+s.;.Y =.>.a.^.q.(.X.=.K.^.(.X G -.Y E j }                                               ",
"                    ]+y {.{.2.*+A =+&.a.>.;.>.R.=.%.%.q._.j.(.C.(.:.:.j._.j.j.G V <                                             ",
"                    {+~.{.~.'+      j A >.;.Y T V *+3.%.q._.j.j._._.j.j.:.:.:.j.6.C I                                           ",
"                    ]+~.~./+r       k Z R.>.-.      >+d+=+6.;.s.=.^.s.s._.:.:.:.(.*.h _                                         ",
"                      '+~.~.@.    d &.K.4.,.            9 g B '.'.W.Z -.X :.:.:._.s.U v                                         ",
"                        ]+{+    o.!+%.-+-+B                   < I I 9 <.G :.:.:._.;.h / ; p L                                   ",
"                                                                    * I *.X (./.s.k )+2 S.A.N                                   ",
"                                                                      : V -+^.4.,+< ).U.`.g.u n                                 ",
"                                                                        v d H g f <.o w.m.+.D.o                                 ",
"                                                                        { e.).- N e.L.w.w.N.L o 2                               ",
"                                                                        ^ ).N.J.Z.o V.E.w.U.V.Y.J                               ",
"                                                                        J S.u.m.E.w.U.S.V.J J o J                               ",
"                                                                        2 .+S.w.E.w.T.T.J.U.Z.o 1 k.                            ",
"                                                                          n .+S.w.E.w.`.T.N.N.Y.J t.                            ",
"                                                                            o Y.`.w.`.`.`.u.y.T.Y.o n                           ",
"                                                                            t.n J.w.`.w.I.v.J.U.S.V.o J                         ",
"                                                                              1 T.`.T.E.Q.u.l.f.J.U.Z..+o                       ",
"                                                                              t.Z.S.Z.`.E.I.m m u.m.T.U.Y.o n                   ",
"                                                                              n o V.S.w.E.E.G.[ [ x.m.T.U..+o n                 ",
"                                                                            2 o o Y.`.E.E.E.I.9 4 0 G.N.T.S.o o n               ",
"                                                                          n o o o .+Z.T.E.Q.u.[ @.[ u.m.T.U.V.o o 2             ",
"                                                                        t.o o o o V.U.w.E.I.n.l.P 4 A.f.U.U.Y.o o J             ",
"                                                                        J o .+O.f.m.w.E.E.E.m.y.4 r d.!.u 7.V..+o o 2           ",
"                                                                        K K Y.J.F.T.w.E.E.E.I.v.H.( P r ( / D.u L o J           ",
"                                                                      1+|.|.}.}.M M.J.w.E.I.H.F.m.N.l.4 4 ( / A.M o o n         ",
"                                                            ~ )+)+8 @ @ @ @ @ = = )+|.M M.N.f.J.J.J.J.l.P Q n.N.S.V.o J         ",
"                                                      & } ( 9 9 } { ( 9 _ 9 [ ( 8.!.@ _+|.- ).o Y.U.T.v.G.x.n.n.g.U..+o t.      ",
"                                                  ..} <.9 : : : I :+c 1.y c i v c f+8.] = )+2+&+1 o Y.T.E.Q.F.g./ F.Y.o 2 .     ",
"                                                  ~ )+N & 9 a b <+b d+1.#.1.c c c c 1.d.8.5 8 ` O.o 2 V.`.E.w.N.n.N.f.7.J + .   ",
"                                                  _+<._ < >+a <+c b i d+1.1.1.c b a v c f+s _+|.L Y..+2 V.T.w.J.J.J.g.! M 1 i.  ",
"                                                  } _ 9 < < : :+b v v v v v v v v v i b b >+& 8 , 2+K O.2 .+J.T.J.J.M.u M 1 .   ",
"                                                |._+_+@ ( < < < :+a :+:+a :+: : :+: < : :+a ( } & _+R S.Z.2 Y.T.J.J.Z.o o k..   ",
"                                                  _+% } _ _ 0 9 _ < >+< : _ _ _ _ _ _ 9 9 :+:+: { = 2+J T.2 o U.J.J.Y.o o 1     ",
"                                                  ~ % } : : 9 [.& & & & & * * & & & [.{ } _ a :+9 @ ~ ; U..+J Z.J.J.Z.V.o 1     ",
"                                                |.% [.{ >+:+>+Q 8.8.!.)+~ ~ 1+~ ~ ~ ~ , [.( :+:+} = N N V.Y.n Z.J.U.S.O..+t.    ",
"                                                  _+<.>+'+'+'+'+'+f+4 [.[.[.[.[.[.& ' ' [._ : _ & 8 )+N J Z.n Z.J.U.U.S..+2     ",
"                                                    1+= 8.]+#.y c b :+: : : : : : : _ _ _ :+:+} @ = )+)+n S.2 O.T.J.U.S..+n     ",
"                                                  |...& [.r #.#.z d+v a :+: >+_ _ _ _ : I :+9 & 8 ~ & e.o V.n Z.T.J.U.S..+n     ",
"                                                      N !.d.]+#.#.c v v v b c b a <+a a a : { [.& ~ / h..+n J Y.J.U.U.S..+J     ",
"                                                          8 8.P o.<+c d+v v d+b i b b :+I _ { @ & , |.n .+2 o Z.U.U.S.Z.V.o     ",
"                                                          2+_+= ) 5 d.1.d+v v v a : 9 9 } [.& = ~ 2+^ O.o J .+U.J.S.S.O.V.o     ",
"                                                    | . &+b+1+..& { 9 0 _ < : : _ _ 9 ( * @ 8 |.|.^ J .+2 o Y.S.++S.S.Y..+o n   ",
"                                                ;+4+;+i.R 2+)+8 ....@ ) ' ' [.[.{ [.& @ @ _+|.; J .+J 2 o Y.S.S.O.Z.Z.Y..+o n   ",
"      o.x w *+d                               ;+0+[+^+i.6+6+c+^ R - ` |.|.1+)+, 8 8 8 _+~ M M.S.L.2 n o Y.U.S.O.Y.Z.Y.V.o J     ",
"      '+~.9.S x 0                             0+5+;+[+#+4+;+#+| | o O.J.T.m.M.L - R - L O.O..+2 n o V.Z.J.J.S.Z.V..+.+o n       ",
"  f+#.#.~.~.(+o.                            | 0++.5+4+[+8+8+5+1 # J P.N.T.v.Q.w.S..+J n 2 n J .+Y.U.J.J.J.`.J.S.Y.o o J         ",
"  #.$.{+/+/+#.      w w                       3+|+~+}+;+D 9+7+;+# n o V.S.n.G.E.E.`.U.O.Y.S.Z.U.J.J.J.J.T.T.`.S..+o o 1         ",
"  '+2.~.~./+{+      2.2.*+                    ; }+_+[+#+4+5+4+#+# n o o o M f.w.E.E.E.w.`.`.T.T.T.`.`.T.T.T.T.O.o o n           ",
"    1.{.9.~.~.1.  3 w 2.K.k                     _+O R 1 # | 1 # # t.o o K M V.J.E.E.E.w.w.w.w.w.E.E.`.T.T.T.S.Y.o J k.          ",
"    } (+{.9.9.!+*+i d 2.4.-.                      )+` . . # # . . k.}...D.f.U.S.U.w.E.E.E.E.E.E.E.w.T.T.T.Z.Y.V.o t.            ",
"    o.x {.9.2.2.3.3.{.0.q.C                         # . . # .     > _+!.D.m.E.w.w.E.E.E.E.E.E.E.w.J.J.J.O..+o o 2               ",
"      (+9.~.9.{.2.2.!+4.Y j                                         p % e.l.G.Q.w.E.w.E.E.E.E.w.J.U.S.O..+o o                   ",
"        '+$.9.2.B.K.R.R.,.9                                 +   1 &+u & / A. +y.T.`.w.w.w.w.`.J.U.S.Y..+o J                     ",
"          d.$.x 3.,.>.;.Y V                               2 J o .+- ) A.y.y.u.I.w.w.E.w.`.T.J.S.Y..+o o J                       ",
"              '+x *+&.5.5.K.3.d <.&                     L.O.P.P.S.V.u A.y.E.E.E.E.E.w.T.J.U.Y..+o o o J                         ",
"                1.3.3.K.%+X.%+q.*.C a                 N n T.H.G.T.Z.Y.F.v.E.E.E.w.`.T.U.O.V.o o o o n                           ",
"                  :+=+&.s._./.r.(.s.Z C I       9 : v <.2 T.u.I.E.w.T.w.E.w.w.E.w.U.V.V.V.o o o o 2                             ",
"                    H T ;.(.X j.:.X &.Z T v [.<.A T Z k  .J Z.`.E.E.E.E.E.`.T.`.E.w.T.J.Z.o o J                                 ",
"                      a T ;.(.j.:.(.&.a.Y -.a <.W (.X s.E <.)+).U.E.E.E.E.E.`.T.T.T.T.J.Y.o J                                   ",
"                        < T ;.(._.:.j._.X ;.'.< W :.j.(.s.C / ).m.I.I.J.O.J.w.`.T.J.S.V.o                                       ",
"                          < U ;.(._.:.:.j.X ;.Y j.:.j./.6.< ; N.u.u.m.U.J.K J V.L.n                                             ",
"                            _ U >.(._.j.:._.(.:.:.:.(.K.*+N M H.G.I.{ s } % p 2 k.                                              ",
"                              9 f T *.Y X j.:.:.:.:.5.3.x @ , 4 } +.3 s !. .).                                                  ",
"                                [.<.< g '.;.Y Y >.Y 4.x S ( ~ 4 s ....)+                                                        ",
"                                          E <.I h f d c :+<.~ s !.- 2                                                           ",
"                                                              h.                                                                ",
"                                                                                                                                "};
