/* XPM */
static xpm_string_t zombie_right_xpm[] = {
"75 72 233 2",
"  	c None",
". 	c #6A352E",
"+ 	c #64332E",
"@ 	c #6E382F",
"# 	c #6C3632",
"$ 	c #71382F",
"% 	c #743632",
"& 	c #7D4234",
"* 	c #733B31",
"= 	c #6D3932",
"- 	c #7A3D33",
"; 	c #864937",
"> 	c #934D3A",
", 	c #9C533C",
"' 	c #A1563D",
") 	c #A55C40",
"! 	c #9D583F",
"~ 	c #8D4A39",
"{ 	c #834435",
"] 	c #744432",
"^ 	c #AC6243",
"/ 	c #B46946",
"( 	c #B26545",
"_ 	c #895138",
": 	c #9B5941",
"< 	c #95513C",
"[ 	c #8B4A35",
"} 	c #AA5D40",
"| 	c #B56C49",
"1 	c #BC734C",
"2 	c #C68354",
"3 	c #BC774E",
"4 	c #A55A3F",
"5 	c #794935",
"6 	c #B47A51",
"7 	c #BB8758",
"8 	c #CC8D59",
"9 	c #D2945D",
"0 	c #DAA466",
"a 	c #DCAC6B",
"b 	c #CA8856",
"c 	c #693644",
"d 	c #DDB472",
"e 	c #C3764E",
"f 	c #D59C61",
"g 	c #DEB16E",
"h 	c #E2BA75",
"i 	c #E1B672",
"j 	c #D6965F",
"k 	c #CE915B",
"l 	c #B96B49",
"m 	c #6A4531",
"n 	c #7B5330",
"o 	c #CC9763",
"p 	c #C37D51",
"q 	c #944435",
"r 	c #843A33",
"s 	c #8C3B34",
"t 	c #823632",
"u 	c #74362F",
"v 	c #924C4D",
"w 	c #CEA76D",
"x 	c #C8684C",
"y 	c #B85742",
"z 	c #C45444",
"A 	c #BA4A3E",
"B 	c #B3443B",
"C 	c #AC443A",
"D 	c #A83D38",
"E 	c #A43C36",
"F 	c #933B35",
"G 	c #7B3633",
"H 	c #893636",
"I 	c #E4BE79",
"J 	c #E6C57D",
"K 	c #CB7852",
"L 	c #C95A47",
"M 	c #C1493F",
"N 	c #BC443D",
"O 	c #C53E3B",
"P 	c #BC3D3A",
"Q 	c #B94E41",
"R 	c #AB5541",
"S 	c #984835",
"T 	c #E0B36F",
"U 	c #D68359",
"V 	c #D47353",
"W 	c #D26A4F",
"X 	c #D1644D",
"Y 	c #CE5B49",
"Z 	c #CC634B",
"` 	c #C4433E",
" .	c #C93E3C",
"..	c #CA423E",
"+.	c #CC4B42",
"@.	c #C44C41",
"#.	c #AC543E",
"$.	c #A8483A",
"%.	c #A86647",
"&.	c #E0A96C",
"*.	c #D68B5B",
"=.	c #D87C58",
"-.	c #D36C51",
";.	c #CE5346",
">.	c #CB4640",
",.	c #C74640",
"'.	c #E2AF70",
").	c #DB9C64",
"!.	c #D98B5D",
"~.	c #D15647",
"{.	c #AA593F",
"].	c #D39660",
"^.	c #E09D67",
"/.	c #DB9461",
"(.	c #D78359",
"_.	c #D57B56",
":.	c #D05C4A",
"<.	c #B44C3D",
"[.	c #9C3B36",
"}.	c #A44336",
"|.	c #B2523F",
"1.	c #B33D39",
"2.	c #9B6749",
"3.	c #161627",
"4.	c #593A2E",
"5.	c #251B27",
"6.	c #48262E",
"7.	c #5E312E",
"8.	c #191727",
"9.	c #37262D",
"0.	c #653B35",
"a.	c #191B27",
"b.	c #231B2A",
"c.	c #331D2D",
"d.	c #2C1C2C",
"e.	c #542C31",
"f.	c #623432",
"g.	c #27262A",
"h.	c #5A2E2F",
"i.	c #672932",
"j.	c #56282E",
"k.	c #441E2B",
"l.	c #1A1728",
"m.	c #65272F",
"n.	c #1D2427",
"o.	c #432531",
"p.	c #8A4536",
"q.	c #171827",
"r.	c #161728",
"s.	c #563732",
"t.	c #9C3838",
"u.	c #1A1B29",
"v.	c #2B342D",
"w.	c #1F292B",
"x.	c #694B2F",
"y.	c #243227",
"z.	c #9A4C3B",
"A.	c #1D232A",
"B.	c #24332E",
"C.	c #74542F",
"D.	c #435C2D",
"E.	c #493531",
"F.	c #67562E",
"G.	c #4B642C",
"H.	c #212D2C",
"I.	c #3A3430",
"J.	c #60602E",
"K.	c #466D2D",
"L.	c #2A3C2D",
"M.	c #372B32",
"N.	c #36362E",
"O.	c #47392F",
"P.	c #47572D",
"Q.	c #57572D",
"R.	c #644B2F",
"S.	c #2F482D",
"T.	c #4C2931",
"U.	c #79393B",
"V.	c #36522D",
"W.	c #5C3232",
"X.	c #4A6B2D",
"Y.	c #39552D",
"Z.	c #56632C",
"`.	c #3F612D",
" +	c #41652D",
".+	c #4B532C",
"++	c #334C2E",
"@+	c #3C5B2D",
"#+	c #47712D",
"$+	c #31462E",
"%+	c #734E2F",
"&+	c #48492D",
"*+	c #3B492E",
"=+	c #2D432E",
"-+	c #27392D",
";+	c #304630",
">+	c #1B1E31",
",+	c #171929",
"'+	c #574B2E",
")+	c #5A2E30",
"!+	c #1B243B",
"~+	c #572632",
"{+	c #352231",
"]+	c #242738",
"^+	c #1D2133",
"/+	c #1D2D46",
"(+	c #361F31",
"_+	c #492A35",
":+	c #381F31",
"<+	c #5B4230",
"[+	c #492631",
"}+	c #3B1E2B",
"|+	c #2F1D30",
"1+	c #3B2131",
"2+	c #772A32",
"3+	c #4E3848",
"4+	c #3B4355",
"5+	c #233F60",
"6+	c #34394B",
"7+	c #853D46",
"8+	c #2B3144",
"9+	c #294C70",
"0+	c #635C6D",
"a+	c #4C5467",
"b+	c #2A5A83",
"c+	c #667082",
"d+	c #51586C",
"e+	c #2D6793",
"f+	c #43485B",
"g+	c #2D628D",
"h+	c #5B6578",
"i+	c #28354B",
"j+	c #FFFFFF",
"                                                                                                                                                      ",
"                                                                                                                                                      ",
"                                                                <+s.                                                                                  ",
"                                                2 8 8 b 3 ) 4.*+.+<+O.N.                                                                              ",
"                                            o g i i d a f %.s.$+D.Q.&+$+S.++S.-+                                                                      ",
"                                      | 6 k g I J J J I a 6 0.$+`. +`.Y.V.Y.V.=+L.$+                                                                  ",
"                                    9 0 a i I J J J J I a 2 _ O.V.`. +`.@+@+Y.Y.Y.@+P.Y.S.L.-+                                                        ",
"                                  0 ^.i I I h h I J J i /.K ) ] N.Y.K.K.`. +`. +`.D.P.D.Y.V.S.S.S.=+L.                                                ",
"                              ].)././.i I i a 0 w d i ).U | ; 4.$+Y. +K. + + +`.`.G.G.P..+.+P.Y.Y.Y.++=+-+B.                                          ",
"                            f a ^.).&.h a j ].3 %.7 k K l 5 O.*+@+ +K.K.K.`. +`. +X.G.F.%+C.F.F.Q.P.Y.V.S.L.B.B.                                      ",
"                          f a T '.i h i ).U 3 :     / ( , s.*+D. + + +K.`.V.`.`.`. +X.J.C._ ~ [ %+Q.D.Y.++=+L.B.B.                                    ",
"                        f 0 ).&.'.i d 0 8 |                 *+.+D.@+@+ +@+=+@+@+V.@+K.X.Z.C.> S [ F..+&+*+*+N.I.v.B.                                  ",
"                      f 0 !._.U *.].k 3                     =+$+=+$+V.Y.V.y.L.=+$+Y.K.K.X.J._ S S p.- = = 0.4.4.O.v.B.                                ",
"                    ].).).=.W x x (                         w.H.H.B.-+-+-+n.H.-+=+@+ +K.X.J.F.; [.[.[.E q { ] R.&+*+$+-+                              ",
"                2 9 f j j U                                 a.a.a.A.^+^+A.u.H.B.L.++Y. +K.G.G.F.; [ [ S S q { R.'+'+.+$+L.                            ",
"              ].0 0 0 0 j                             b.8.3.,+r.,+!+5+5+^+A.H.B.-+=+Y. +K.K.G.Z.Q.Q.Q.F.%+[ n R.R.x.R.&+&+s.                          ",
"          b f 0 0 0 a a f                           {+b.u.>+^+u.>+5+9+5+^+w.B.B.L.*+`.K.K.K.Z.J.P.Y.Y.@+P.Z.J.Z.P..+'+P.&+<+E.                        ",
"        V U !.U U *.f 0 f                         8+]+]+8+6+6+]+/+9+9+/+>+H.B.L.*+.+`. +K.K.G.Q.*+S.S.++V.@+ + +`.@+Y.Y.Y.&+I.                        ",
"      y -.(.(.-.K p 2 9 9                       4+8+6+8+f+d+a+6+i+b+9+!+u.H.-+$+Y.D.`.`.`.Y.$+L.B.B.H.B.-+L.++V.@+@+Y.Y.V.S.L.B.                      ",
"      z X W -.      3 U _.                      4+6+6+8+a+d+a+8+5+b+5+]+b.B.v.$+V.Y.Y.*+N.v.g.g.H.-+L.L.-+B.y.-+L.++Y.Y.Y.++=+-+                      ",
"    y L X :.        3 _.-.                      f+3+6+]+6+4+8+]+5+9+4+1+c.9.o.E.E.E.s.s.e.T.o.9.I.=+L.N.N.N.$+=+B.-+S.V.Y.V.S.=+-+                    ",
"    z y Z ;.        L x                           # o.>+^+]+]+^+8+3+_+[+[+e.7.. # @ = * G G # 7.e._+o.s.m 0.O.++S.y.-+S.V.Y.V.++=+                    ",
"    B C z +.                                      c M.u.r.u.^+|+1+e.W.f.# = - { ~ > > z.$.}.F r % . + W.- ~ ] O.++=+B.L.V.Y.V.V.++L.                  ",
"      B +.>.`                                             b.1+e.= & ~ ~ ~ > z.$.<.<.#.{.#.|.$.$.[.F r + f.5 ; 0.I.=+-+B.S.Y.Y.V.++=+                  ",
"        ,... .O                                             W.- ; ~ < , ' ' {.#.<.A <.|.|.#.{.#.<.$.q # )+W.f.f.s.N.=+y.L.Y.Y.V.V.$+L.                ",
"                                                              # = { < ' #.#.{.{.#.<.|.|.{.} } 4 4 #., { * = 7.e.0.I.L.B.B.++V.V.V.++=+-+              ",
"                                                              * { ~ < ' #.#.} } {.{.{.{.4 4 4 ' ' ' ' , ~ ; = W.= e.v.y.B.=+V.V.++++=+-+B.            ",
"                                                              ~ ~ > z.z., 4 4 4 4 ' ' , , < z.> > ~ < , , > - f.= f.N.B.H.L.++V.++++=+L.B.            ",
"                                                              - - p.> < > , , , , < < > ~ ; p.{ & { ; < ' < & # # W.N.H.H.L.++++++++;+L.B.            ",
"                                                              f.* ; > z.q ~ ~ [ { & - = # + f.W.W.. & > , > - f.e.T.v.B.B.L.++++$+$+=+-+H.            ",
"                                                              = { ~ , z.p.- - - # W.)+)+)+W.f.+ . $ { > , ~ * + T.9.v.H.B.=+++S.=+=+L.B.A.            ",
"                                                              f.* p., ' z.}.}.[.s * * - & { ; ; ; [ > , , { # )+[+9.B.H.-+++++S.=+L.-+B.A.            ",
"                                                                { S C <.B B C #., > > < < < < < < , , ' > & $ )+o.v.H.B.=+V.V.++++L.B.B.A.            ",
"                                                                = s }.B A A |.{.4 ' ' ' , , , , , ' ' ' ~ - * f.o.g.H.L.++Y.@+@+V.L.B.H.A.q.q.        ",
"                                                                e.f.r D N N A |.{.{.} {.#.#.4 {.R ' ' < [ * . )+1+g.L.++V.Y.@+@+Y.=+B.H.u.r.l.b.      ",
"                                                                  = r [.1.B B <.#.#.} } #.#.{.4 ' < ~ { - . e.o.9.L.++Y.Y.@+@+@+Y.$+B.H.a.r.u.c.[+    ",
"                                                                        H [.S S $.<.#.{.{.4 ' , > ~ { * . e.o.v.L.++Y.@+`.@+@+@+++=+B.w.a.r.l.c.j.    ",
"                                                                          # # * s z.z.z., < > ~ ; & * . h.o.N.$+++Y.@+`. +@+@+Y.$+-+B.A.8.l.5.}+T.    ",
"                                                                          e.# * - & - - * - * * = . 7.s.O.$+++Y.@+`. +K. +@+Y.++-+B.w.u.5.c.k.j.6.    ",
"                                                                                      e.e.e.s.s.s.s.O.*+@+`.`.`. +K.K.K.`.Y.V.=+-+H.A.d.}+6.j.T.      ",
"                                                                                        I.O.*+&+<+&+D. +K.K. + +K.K.K.K.@+V.S.L.B.w.u.d.1+            ",
"                                                                                        v.N.$+*+&+&+D. +K.K.K.K.K.K.K. +Y.++=+-+H.                    ",
"                                                                                          B.-+v.N.*+++Y.`.K.K.K.K.K. +@+V.=+-+B.                      ",
"                                                                                          B.B.N.I.*+Y.@+`.K. + + + +`.Y.++L.B.B.                      ",
"                                                                                            I.s.s.P.G.G. + +`.`. +`.@+V.L.B.B.                        ",
"                                                                                              # 0.R.F.F.G.`.`. +`.@+V.=+-+B.B.                        ",
"                                                                                                = * %+x.Q.X.K. +`.V.$+-+B.B.                          ",
"                                                                                                = m Q.Z.G.K.K.`.Y.$+L.-+B.                            ",
"                                                                                                0.R.Q.X.K.K. +@+++++++L.B.                            ",
"                                                                                                f.R.Q.X.K.K. +`.@+Y.V.=+                              ",
"                                                                                                I..+G.K. +`.`.`.@+Y.++                                ",
"                                                                                                ++@+K.K. +`.`.@+Y.++                                  ",
"                                                                                              =+@+ +K.K. +`.`.@+++-+                                  ",
"                                                                                              *+@+ +K. +Y.++S.$+N.g.                                  ",
"                                                                                            I.'+G.K.K. +D.*+*+<+f.                                    ",
"                                                                                          L.&+F.Z. +`. +Z.Q.R.{ G                                     ",
"                                                                                          v.*+P.P.*+$+P.Z.Q.5 s %                                     ",
"                                                                                          s.O.O.O.4.E.&+F.J.m %                                       ",
"                                                                                          < _ _ 2.: m &+x.5 ] f.                                      ",
"                                            @.@.        z L                               | 8 o f 2 _ s.* p.s .                                       ",
"                                          ,.>.`           ;.X 2                           b a T g ].%.= 7.G H                                         ",
"                                          ` ..O           z :.U                           7 d I T !.Z $.s                                             ",
"                                        P O  . .        ( z L U 8                       < 2.w I h ).X @.$.                                            ",
"                                        ` ,.........+.L L ;.Z U j           2 b 2 2 2 2 3 | 7 h I &.V z                                               ",
"                                          @.@.>.>.>.+.+.;.:.U ).0 f U _.*.0 g g j U j 0 0 f 0 I I a p                                                 ",
"                                              M +.>.>.+.;.X U j j /./.&.&.'.I I a 0 g i d T h I d k                                                   ",
"                                              <.@.,...>.+.;.Z -.-._./.g i i I J I I I J I I I d 8                                                     ",
"                                                            Q z x K k 0 a g i i h h h h h d g 7                                                       ",
"                                                                      3 2 k f 0 a a a f 8 b                                                           ",
"                                                                              6 6 p 6 %.                                                              ",
"                                                                                                                                                      ",
"                                                                                                                                                      "};
