/* XPM */
static xpm_string_t zombie_middle_xpm[] = {
"65 72 238 2",
"  	c None",
". 	c #6A352E",
"+ 	c #65332E",
"@ 	c #6D3A31",
"# 	c #6E382F",
"$ 	c #733B31",
"% 	c #6C3632",
"& 	c #7A3D33",
"* 	c #834435",
"= 	c #8D4A39",
"- 	c #8B4A35",
"; 	c #864739",
"> 	c #7D4234",
", 	c #744432",
"' 	c #8A4636",
") 	c #9C583F",
"! 	c #A55B40",
"~ 	c #AA5D40",
"{ 	c #AD6243",
"] 	c #B16544",
"^ 	c #AA593F",
"/ 	c #95523C",
"( 	c #934D3A",
"_ 	c #794736",
": 	c #875135",
"< 	c #B46A46",
"[ 	c #BA6D4A",
"} 	c #BC734C",
"| 	c #B68558",
"1 	c #C38A5A",
"2 	c #BA764E",
"3 	c #B56C49",
"4 	c #C58354",
"5 	c #CE925B",
"6 	c #A45A3F",
"7 	c #9C533C",
"8 	c #844A33",
"9 	c #633A33",
"0 	c #9B6749",
"a 	c #CCA66C",
"b 	c #DCAC6A",
"c 	c #D59C61",
"d 	c #C98555",
"e 	c #D49760",
"f 	c #DEB16E",
"g 	c #E1B671",
"h 	c #DCA669",
"i 	c #CB8A57",
"j 	c #C1794E",
"k 	c #D5965F",
"l 	c #CC8D59",
"m 	c #DEB673",
"n 	c #E2BA74",
"o 	c #E1AC6E",
"p 	c #D2945D",
"q 	c #733632",
"r 	c #D9A868",
"s 	c #D7A164",
"t 	c #E2AF70",
"u 	c #A2563E",
"v 	c #9A4C3B",
"w 	c #73382F",
"x 	c #73362F",
"y 	c #7B3632",
"z 	c #A96848",
"A 	c #E4BE78",
"B 	c #E0B26F",
"C 	c #C4724E",
"D 	c #BC6548",
"E 	c #BC5442",
"F 	c #B9513F",
"G 	c #BB4A3E",
"H 	c #B3443B",
"I 	c #A53C38",
"J 	c #A33C36",
"K 	c #9C3B36",
"L 	c #943B35",
"M 	c #863733",
"N 	c #E6C57D",
"O 	c #E5C077",
"P 	c #DB9C63",
"Q 	c #CF6F50",
"R 	c #C7674B",
"S 	c #C95A47",
"T 	c #CD5346",
"U 	c #C45444",
"V 	c #C2493F",
"W 	c #BC443D",
"X 	c #B33E39",
"Y 	c #633432",
"Z 	c #C37C51",
"` 	c #D57B56",
" .	c #D2694F",
"..	c #CD624B",
"+.	c #CE5B49",
"@.	c #C43E3C",
"#.	c #CA423E",
"$.	c #C4433E",
"%.	c #C64740",
"&.	c #C34C40",
"*.	c #B65943",
"=.	c #AC543E",
"-.	c #9C4336",
";.	c #D58459",
">.	c #D05648",
",.	c #CB4640",
"'.	c #B2533F",
").	c #974A35",
"!.	c #E0A46A",
"~.	c #D98B5D",
"{.	c #D6875A",
"].	c #D87C58",
"^.	c #D05C4A",
"/.	c #DAA466",
"(.	c #DB9561",
"_.	c #D47353",
":.	c #D1634D",
"<.	c #CC4C42",
"[.	c #E09D67",
"}.	c #D36C51",
"|.	c #C93E3C",
"1.	c #A4433A",
"2.	c #AC443A",
"3.	c #8C3B35",
"4.	c #151627",
"5.	c #251B26",
"6.	c #492A2D",
"7.	c #AD5540",
"8.	c #A44336",
"9.	c #171927",
"0.	c #191727",
"a.	c #2B1D2C",
"b.	c #D39461",
"c.	c #321D2E",
"d.	c #34242D",
"e.	c #583832",
"f.	c #191B27",
"g.	c #2C232C",
"h.	c #542C2F",
"i.	c #692C31",
"j.	c #461F2B",
"k.	c #4C3331",
"l.	c #6C4331",
"m.	c #5A2E2F",
"n.	c #944435",
"o.	c #885642",
"p.	c #BB4E40",
"q.	c #B44C3D",
"r.	c #843B34",
"s.	c #B57A52",
"t.	c #1A1C28",
"u.	c #231B2A",
"v.	c #39292D",
"w.	c #BC3D3A",
"x.	c #181728",
"y.	c #1F292B",
"z.	c #473631",
"A.	c #9A3838",
"B.	c #AC3D38",
"C.	c #573D2D",
"D.	c #9A5841",
"E.	c #A8493A",
"F.	c #1D232A",
"G.	c #24332E",
"H.	c #452C35",
"I.	c #714C2F",
"J.	c #212D2C",
"K.	c #643946",
"L.	c #603B2E",
"M.	c #171928",
"N.	c #273627",
"O.	c #CB7752",
"P.	c #733F39",
"Q.	c #75552E",
"R.	c #3D4B2D",
"S.	c #1C2327",
"T.	c #684830",
"U.	c #7B4B31",
"V.	c #65602D",
"W.	c #43532D",
"X.	c #25282A",
"Y.	c #48492D",
"Z.	c #4B542C",
"`.	c #5B522D",
" +	c #694C2F",
".+	c #54632C",
"++	c #3C5B2D",
"@+	c #3F612D",
"#+	c #4C642C",
"$+	c #54542C",
"%+	c #67562E",
"&+	c #382B31",
"*+	c #466D2D",
"=+	c #4C5B2C",
"-+	c #634C2E",
";+	c #36522D",
">+	c #585C2D",
",+	c #4B6B2D",
"'+	c #362131",
")+	c #584230",
"!+	c #435C2D",
"~+	c #46372E",
"{+	c #3B442E",
"]+	c #59622C",
"^+	c #2B342D",
"/+	c #5D312F",
"(+	c #2F482D",
"_+	c #47712D",
":+	c #293C2D",
"<+	c #39552D",
"[+	c #41652D",
"}+	c #334C2E",
"|+	c #1F2827",
"1+	c #574A2E",
"2+	c #31462E",
"3+	c #2D432E",
"4+	c #39392E",
"5+	c #7B5230",
"6+	c #2D4230",
"7+	c #27392E",
"8+	c #241E30",
"9+	c #391F2D",
"0+	c #592533",
"a+	c #3B2131",
"b+	c #333430",
"c+	c #532C31",
"d+	c #34332E",
"e+	c #7D4550",
"f+	c #361F31",
"g+	c #2C2431",
"h+	c #381F31",
"i+	c #44242F",
"j+	c #432531",
"k+	c #4C2931",
"l+	c #592E30",
"m+	c #5C3132",
"n+	c #492730",
"o+	c #FFFFFF",
"                                                                                                                                  ",
"                                                                                                                                  ",
"                                                  1 5 l 1 Z 3 6   ~+L.e.                                                          ",
"                                          z 3 l f n A n f r 5 z e.{+$+)+k.                                                        ",
"                                      i p c r f A N N N O g s 0 k.;+!+`.Y.6+:+                                                    ",
"                                  l s P !.n A A A O N N N n s z C.;+@+!+!+}+}+(+7+                                                ",
"                                p s (.~.!.A A m f f A N A !.~.3 _ {+++[+[+<+;+(+:+:+:+                                            ",
"                            1 s b !.P !.g g /.s e 1 a m o ~.O.] ; k.}+[+*+[+++++++<+<+}+                                          ",
"                          5 /.h o g g n g h {.d 2 D.s.l ;.C 0 _ C.4+;+[+*+*+[+@+@+!+=+<+}+:+                                      ",
"                        e /.(.~.P o f B r e Z ]         ] 6 9 {+R.@+[+*+[+[+[+@+[+#+=+!+<+(+3+7+                                  ",
"                    1 e s /.;._._.` l l Z 3                 ~+R.!+[+[+[+;+@+@+@+*+#+>+`.$+W.;+}+2+:+                              ",
"                  l e c (.(.` Q R *.!                         R.W.++<+;+3+++++++[+,+V.5+5+%+$+!+<+}+3+                            ",
"            4 e s r r /.P k                                   :+:+3+(+:+G.}+}+;+@+*+.+Q.: : 5+%+Z.<+}+:+G.                        ",
"        D O.p c P s /.r /.p                                         J.F.y.7+:+}+@+*+,+]+: ).).U.$+<+;+(+7+G.                      ",
"      =.R ` ~.` _.;.~.s /.p                                             y.G.:+;+[+*+*+.+5+( -.8 `.W.;+}+:+G.G.                    ",
"      *...}.` Q Q j j 5 k 5                                             J.G.7+(+<+[+*+.+%+8 -.L & L.Y.Y.4+b+^+G.                  ",
"      S :.....      z i ` d                                             G.G.:+(+++*+*+#+>+I.).8.J L > l.C.e.4+^+                  ",
"    U U  .+.          ` Q                                             G.7+3+R.++[+*+_+,+#+>+5+8 ).-.n.' , T.C.b+G.                ",
"    G H U <.        *. .                                              G.6+R.Z.!+[+*+*+.+V.=+=+$+`.U.n.n._ 1+Y.R.:+G.              ",
"      H <.,.w.                                                      ^+^+2+R.W.++@+[+[+=+`.Z.<+<+W.$+Q.5+I.1+-+1+R.:+              ",
"        ,.,.#.H                                                     6.6.k.k.k.k.~+{+{+2+4+:+:+2+;+++=+.+>+$+-+-+Y.{+4+            ",
"          $.@.                                                      . % % % # # . /+k+j+d.X.y.G.7+3+<+[+[+!+Z.1+W.1+L.~+          ",
"                                                            > > & > ' = = = = n.L M x + k+j+d+:+G.J.:+}+++@+++W.<+Z.L.z.          ",
"                                                        = ( 7 7 7 7 E.q.q.=.^ =.E.1.L r.q + k.4+^+7+7+N.3+;+++<+<+;+{+d+          ",
"                                                    @ & ; 7 u ^ ^ ^ '.G G q.'.'.=.=.=.1.K M /+6.v.^+3+3+G.:+;+<+<+;+:+G.          ",
"                                                    $ * = 7 u '.7.^ ^ '.q.q.'.=.^ ! ^ =.E.3.. c+n+a+^+}+3+G.3+;+<+;+3+7+G.        ",
"                                                    = ( / 7 u =.^ ~ ~ ^ ^ ^ ^ ^ ! 6 6 6 u 7 * $ . h.v.6+}+G.7+}+<+;+}+6+7+        ",
"                                                  & > * ( / / 7 u 6 6 u u u 7 7 7 7 / / 7 u / = > + i+d+3+7+G.(+<+;+}+(+:+        ",
"                                                  m+Y > = ( ( ( / 7 7 7 / ( ( = = = = = = 7 u 7 = @ c+6.b+3+G.3+<+<+;+}+6+        ",
"                                                  m+& ' / v n.' * * * > & $ $ $ $ @ @ $ & ' 7 7 = $ l+/+d+(+G.3+<+<+<+}+6+        ",
"                                                    $ * 7 7 ).* r.r.y Y m+m.l+m.m.m+/+Y $ ' 7 7 ' . c+l+d+3+J.:+;+<+;+}+3+        ",
"                                                    > n.E.E.E.1.1.1.n.& $ $ & & & & & & * ( 7 ( & + h.k+g.:+J.7+}+;+;+}+3+7+      ",
"                                                    & n.1.H H H q.=.u / ( ( ( / / ( ( ( 7 7 7 ' # /+h.6.^+G.J.7+}+;+;+}+(+:+      ",
"                                                      % 3.B.W G q.^ ! 6 u 7 7 7 / v v 7 u u ( > $ /+k+v.:+G.J.:+}+;+}+}+3+:+G.    ",
"                                                      @ * 1.H W G '.^ ~ ~ ^ =.=.u ^ ^ u u 7 = & $ Y n+g.:+J.G.3+}+}+}+(+3+:+G.    ",
"                                                            J B.2.'.=.^ ~ ~ 7.7.! ^ 6 u 7 ( ; $ . m.j+^+G.J.:+2+}+2+(+(+6+7+      ",
"                                                              M 3.n.E.=.=.^ ^ ^ 6 u / ( ' & $ + c+v.d+J.J.7+(+}+(+3+6+3+7+        ",
"                                                              m+Y $ ' v v 7 7 7 / ( = ; & # Y c+d+^+J.J.7+(+;+;+}+2+:+7+G.        ",
"                                                              /+% $ $ & & & > > * > & $ . /+k+v.^+J.G.:+(+;+++++;+(+:+G.J.        ",
"                                                                c+k+k+c+c+c+e./+Y Y /+m.h.i+d.X.J.7+(+;+<+<+++++++(+7+G.J.        ",
"                                                                n+a+g.d+{+{+{+Y.Y.{+~+4+d+^+^+:+3+}+<+++++<+++++++2+7+G.          ",
"                                                                  '+X.^+{+<+!+$+#+[+++<+}+}+;+<+<+++++@+@+++++++;+2+7+J.          ",
"                                                                    F.G.:+2+Y.-+$+,+*+*+[+@+@+@+@+@+[+[+@+++++<+2+6+G.            ",
"                                                                      J.G.7+^+~+R.@+*+*+*+[+[+*+*+*+*+[+++++<+2+:+G.              ",
"                                                                        J.^+d+4+{+;+++[+*+*+*+*+*+*+*+++<+;+(+7+G.                ",
"                                                                          k.e.Y.<+++++[+*+*+*+*+*+*+@+<+;+(+:+G.                  ",
"                                                                          Y 9 $+.+#+[+*+*+[+[+*+*+@+<+;+2+:+G.                    ",
"                                                                          + @ T.I.V.#+[+@+@+[+[+@+<+;+3+:+G.                      ",
"                                                                          Y $ l. +%+.+@+@+[+@+@+++}+6+7+G.                        ",
"                                                                          Y l.`.>+.+,+*+*+[+++<+}+:+7+G.G.                        ",
"                                                                          /+T.>+,+*+*+*+[+++;+(+:+G.G.G.                          ",
"                                                                          ~+$+.+*+*+*+[+++}+(+3+7+G.G.                            ",
"                                                                        3+}+!+*+*+[+[+[+[+++<+}+:+G.                              ",
"                                                                      :+;+@+*+*+*+@+@+@+@+++<+}+7+                                ",
"                                                                    ^+{+++[+*+*+[+@+@+++++;+}+                                    ",
"                                                                  :+~+1+#+*+*+@+<+<+<+<+}+:+                                      ",
"                                                                  2+$+%+#+[+[+[+!+2+4+4+v.                                        ",
"                                                                  4+R.W.<+;+<+=+>+Z.)+$ /+                                        ",
"                  &.                                              9 ~+~+C.~+{+=+>+-+* M                                           ",
"                <.V         U +.O.                                z 0 0 D.l.Y.`.%+ +r.q                                           ",
"              #.#.$.        p.T  .d                             i s s c s._ ~+I.U.$ %                                             ",
"            X @.#.#.        u U :.;.                          s.r g g b l o.h.$ n.r./+                                            ",
"            $.@.#.|.#.      D T ..;.1                       = z r A A !.` '.y + M 3.                                              ",
"            W %.,.#.#.,.T T S >.Q ~.e           4 4 Z Z Z s.< z 1 A O b _.U 2.                                                    ",
"                &.<.<.<.<.<.T  .~.P s e ;.;.k r f b ~.;.c s c 5 a A N B ` U                                                       ",
"                  &.<.,.,.<.T  .{.p (.~.P h b g A n !.[.f g f f n N A r O.                                                        ",
"                  F V $.$.$.%.U R Q Q ;./.B B n O O A A A A A A O n r 1                                                           ",
"                                  U R O.p r b f g n n n A n n n m 5                                                               ",
"                                          2 4 5 s r b b r c 5 5                                                                   ",
"                                                  s.4 4 2 z                                                                       ",
"                                                                                                                                  ",
"                                                                                                                                  "};
