/* XPM */
static xpm_string_t zombie_right_middle_xpm[] = {
"66 72 236 2",
"  	c None",
". 	c #65332E",
"+ 	c #6A352E",
"@ 	c #6B3532",
"# 	c #6D3931",
"$ 	c #6E382F",
"% 	c #733B31",
"& 	c #7A3D33",
"* 	c #7D4134",
"= 	c #864937",
"- 	c #834435",
"; 	c #71392F",
"> 	c #744432",
", 	c #73362F",
"' 	c #7A352F",
") 	c #7B3633",
"! 	c #833532",
"~ 	c #8B3735",
"{ 	c #8C3B34",
"] 	c #8D4A39",
"^ 	c #9E583F",
"/ 	c #AD6243",
"( 	c #B26545",
"_ 	c #A55A3F",
": 	c #9C533C",
"< 	c #A2563E",
"[ 	c #A55C40",
"} 	c #95513C",
"| 	c #843B34",
"1 	c #9B3B35",
"2 	c #A53C37",
"3 	c #943B35",
"4 	c #AD3D39",
"5 	c #B3443B",
"6 	c #BC443D",
"7 	c #BA4A3E",
"8 	c #B75842",
"9 	c #B2523E",
"0 	c #A6493A",
"a 	c #8A4536",
"b 	c #934D39",
"c 	c #B46946",
"d 	c #B56C49",
"e 	c #B96D49",
"f 	c #BC734C",
"g 	c #BA764E",
"h 	c #AA5D40",
"i 	c #BD4D40",
"j 	c #B04037",
"k 	c #B63D39",
"l 	c #C43E3B",
"m 	c #C4433E",
"n 	c #CA423E",
"o 	c #C45444",
"p 	c #CC4B42",
"q 	c #C95A47",
"r 	c #875136",
"s 	c #C2784F",
"t 	c #C58253",
"u 	c #CC8C59",
"v 	c #CF925B",
"w 	c #D59C61",
"x 	c #D4975F",
"y 	c #CA8A57",
"z 	c #C98555",
"A 	c #C7684C",
"B 	c #C44C41",
"C 	c #C14A3F",
"D 	c #CE5346",
"E 	c #773E39",
"F 	c #795130",
"G 	c #8B4A35",
"H 	c #DCAC6A",
"I 	c #E1B671",
"J 	c #E2BB75",
"K 	c #DFB16E",
"L 	c #DBA867",
"M 	c #D7A164",
"N 	c #DAA466",
"O 	c #D2945D",
"P 	c #C37D51",
"Q 	c #CB7752",
"R 	c #CE5C49",
"S 	c #D05C4A",
"T 	c #C54740",
"U 	c #C93E3C",
"V 	c #D05547",
"W 	c #784934",
"X 	c #99684A",
"Y 	c #9A5941",
"Z 	c #A66446",
"` 	c #DFB672",
" .	c #E0B26F",
"..	c #D7875A",
"+.	c #CF6D50",
"@.	c #D2694F",
"#.	c #CD634B",
"$.	c #CB4640",
"%.	c #B44C3D",
"&.	c #743632",
"*.	c #8C5942",
"=.	c #D09760",
"-.	c #D58359",
";.	c #D57B56",
">.	c #9B4335",
",.	c #A34336",
"'.	c #CDA66C",
").	c #E0A56A",
"!.	c #D98C5D",
"~.	c #D1644D",
"{.	c #BB6548",
"].	c #E5BE79",
"^.	c #E6C57D",
"/.	c #E1AC6E",
"(.	c #D87C58",
"_.	c #D47353",
":.	c #D36D51",
"<.	c #D2A86C",
"[.	c #E8C67E",
"}.	c #DB9561",
"|.	c #DB9B63",
"1.	c #BB7B52",
"2.	c #DDA569",
"3.	c #D19561",
"4.	c #AC433A",
"5.	c #AC4E40",
"6.	c #9A4D3B",
"7.	c #633432",
"8.	c #934435",
"9.	c #AA7851",
"0.	c #AE5740",
"a.	c #993937",
"b.	c #BC8B5B",
"c.	c #663C35",
"d.	c #AA593F",
"e.	c #161627",
"f.	c #231A27",
"g.	c #3A282D",
"h.	c #5E312F",
"i.	c #E2AE70",
"j.	c #191727",
"k.	c #33242D",
"l.	c #542C2F",
"m.	c #191728",
"n.	c #2B1C2C",
"o.	c #5D3232",
"p.	c #48282E",
"q.	c #55252D",
"r.	c #491E2A",
"s.	c #191B27",
"t.	c #28252B",
"u.	c #171927",
"v.	c #231C29",
"w.	c #493430",
"x.	c #5B2E2F",
"y.	c #452B32",
"z.	c #4C2931",
"A.	c #AA4337",
"B.	c #341E2E",
"C.	c #1A1C29",
"D.	c #974936",
"E.	c #1F2927",
"F.	c #543A2E",
"G.	c #1D232A",
"H.	c #24332E",
"I.	c #3B482E",
"J.	c #4B642C",
"K.	c #2A3C2D",
"L.	c #6A4531",
"M.	c #1F292B",
"N.	c #563732",
"O.	c #75542F",
"P.	c #55632C",
"Q.	c #36522D",
"R.	c #1D2327",
"S.	c #212D2C",
"T.	c #694D2F",
"U.	c #66562E",
"V.	c #4A6B2D",
"W.	c #3C5B2D",
"X.	c #161728",
"Y.	c #2B342D",
"Z.	c #43532D",
"`.	c #4C582C",
" +	c #59582D",
".+	c #3F612D",
"++	c #243227",
"@+	c #171928",
"#+	c #544B2D",
"$+	c #41652D",
"%+	c #39552D",
"&+	c #53532C",
"*+	c #334C2E",
"=+	c #31462E",
"-+	c #466D2D",
";+	c #37582E",
">+	c #383232",
",+	c #2F482E",
"'+	c #47712D",
")+	c #435C2D",
"!+	c #2D432E",
"~+	c #532C31",
"{+	c #38372E",
"]+	c #27392D",
"^+	c #474A2D",
"/+	c #5C4B2E",
"(+	c #483A2E",
"_+	c #372B36",
":+	c #3B2131",
"<+	c #304430",
"[+	c #634C2E",
"}+	c #1D1F30",
"|+	c #662D31",
"1+	c #252738",
"2+	c #5C2632",
"3+	c #1F2133",
"4+	c #524030",
"5+	c #2B1E30",
"6+	c #361F31",
"7+	c #352231",
"8+	c #381F31",
"9+	c #432531",
"0+	c #5A2E31",
"a+	c #492630",
"b+	c #AC543E",
"c+	c #3D4456",
"d+	c #473646",
"e+	c #6A3642",
"f+	c #823C46",
"g+	c #45485A",
"h+	c #303345",
"i+	c #52586B",
"j+	c #5C6578",
"k+	c #36384B",
"l+	c #4C5467",
"m+	c #FFFFFF",
"                                                                                                                                    ",
"                                                                                                                                    ",
"                                                          c.o.w.                                                                    ",
"                                                c c Z = (+&+/+N.{+K.!+K.]+                                                          ",
"                                            y v =.v P *.(+W.`.#+I.=+Q.Q.*+K.++                                                      ",
"                                        =.H J J ` K w X (+Q..+$+.+%+W.W.Q.Q.%+%+Q.=+K.                                              ",
"                                      y K ].^.^.^.J H g > (+%+$+-+.+.+$+$+.+W.`.&+Z.Q.!+]+]+                                        ",
"                                Z 1.v H ].^.^.[.^.].|.Q [ c.{+W.-+-+$+-+$+.+.+J.J.Z.Z.Q.*+*+,+K.                                    ",
"                              P =.L ` ].].J ].^.^. .!.A Y c.{+;+$+-+.+.+.+.+$+J.P.[+[+ +`.)+W.Q.!+]+H.                              ",
"                            t w |.H ].]. .L w H  .}.Q Z c.I.W.$+-+$+;+%+.+.+$+V.P.O.r r O.U.`.W.Q.,+K.H.                            ",
"                          1.w }.!.H J H M u 9.9.z s ( > {+Z.$+$+$+.+*+*+W.%+W.-+V.P.O.] b r U.Z.%+*+!+]+H.                          ",
"                          w 2.|.2.J  .!.-.            c.{+`.)+W.%+;+K.]+=+=+Q.$+-+V.U.r 6.D.T.#+Z.I.I.K.Y.H.                        ",
"                        =.H K i.J J H v                   I.<+!+!+!+E.M.]+!+W.$+-+V.P.F D.>.{ & L.c.F.F.F.{+H.                      ",
"                      v N N ). . .H =.                    S.S.S.S.E.G.S.H.]+*+W.$+V.P. +W >.,.,.>.a * > /+(+K.]+                    ",
"                    y M }.......u t                       C.s.s.s.s.G.H.H.H.!+%+$+-+V.J. +F = G >.>.8.* /+^+I.<+]+                  ",
"                  z w N !.:.@.A                           m.X.e.e.C.S.H.Y.{+*+.+-+-+V.P.P. +&+&+T.r 8.W [+[+/+^+=+{+                ",
"                P O M }.!.                            _+7+C.X.X.@+G.S.H.!+^+)+.+-+-+V.U. +Z.%+%+)+ +U.U.&+/+[+#+^+4+w.              ",
"                u w M }.v                           h+1+1+}+1+1+}+G.H.K.*+Z.)+.+$+$+)+Z.I.=+!+,+Q.W.J.J..+Z.`.Z.Z./+N.              ",
"            t =.N L L N v                         h+h+h+h+h+c+c+h+t.Y.{+I.I.I.I.I.=+!+Y.S.S.++H.]+K.*+W..+W.%+%+%+I.{+              ",
"          t w M M N N L w                         c+h+k+h+h+c+c+_+:+9+p.w.~+N.N.~+z.9+g.k.K.!+K.]+++H.K.,+Q.%+%+%+*+K.H.            ",
"        P ..}...-...O M w                         g+h+k+_+_+y.z.~+0+7.+ $ ; ; % ) ' @ h.~+y.{+{+Y.{+!+K.H.K.*+%+%+Q.!+]+            ",
"      8 +.-..._.+.s 1.v -.                        c+d+y.z.o.@ % & & - a b D.b 6.0 ,.3 ! , . 0+z.N.N.{+*+!+++K.Q.%+Q.*+!+]+          ",
"      8 #.:._.        -._.                          ~+7.* = b } } : : 5.%.%.b+d.b+9 5.,.3 { ' h.7.W o.{+*+]+H.=+Q.Q.*+,+K.          ",
"      o R ~.#.        +.                            7.% * = } < _ d.d.b+%.7 %.9 9 b+d.b+5.,.| 7.~+o.0+g.K.=+++K.Q.Q.Q.*+,+          ",
"      q #.#.o                                         7.% - } < b+9 d.d.b+9 9 9 d.d.h _ d.b+6.& # . l.p.>+!+]+]+*+%+%+Q.*+K.        ",
"    7 i i D T                                         - b } } < b+b+h h d.d.d.d._ _ < < < < < b G * . ~+z.{+!+H.=+%+%+Q.*+K.        ",
"      5 7 p $.m                                       = = b } } : < _ _ < < : : } 6.} b b b : : : ] # 0+o.{+!+S.K.Q.Q.Q.*+!+K.      ",
"          $.$.n                                       @ % = b 6.b b : : } } b ] = = - - - = b : ^ b & o.# y.K.M.]+*+Q.Q.*+=+K.H.    ",
"                                                      @ * ] } D.8.a - - * & # @ 7.7.7.o.7.# = : : b ; 0+7.g.]+S.]+*+Q.*+*+=+K.]+    ",
"                                                      7.& ] : 6.a | | | @ o.0+o.o.7.7.+ @ % = : b - @ 0+z.Y.]+S.]+,+*+*+*+,+!+H.    ",
"                                                      # * 8.0 0 ,.,.,.,.| & * - - = = a a ] } : b & 7.l.9+Y.]+++K.*+*+=+=+!+K.      ",
"                                                        a >.4.5 5 5 %.< : } } } } } } } } : : : = & 7.z.k.++S.H.!+*+,+!+!+K.]+      ",
"                                                        7.) 1 5 6 %.9 d._ _ < < < : : : : < < } - % @ z.k.S.S.K.*+*+=+!+K.H.H.      ",
"                                                        o.&.{ 4.6 6 7 9 d.h h 0.b+d._ b+_ < : b * $ 7.z.k.M.]+,+Q.%+Q.,+K.H.S.      ",
"                                                              3 2 4.%.5.9 0.h h 0.h _ < : } ] * % h.z.g.t.]+=+Q.%+W.W.*+K.H.S.      ",
"                                                                ! { a 8.0 5.b+d._ < : } ] G * $ h.a+k.t.K.*+%+%+W.W.W.Q.K.H.M.      ",
"                                                                  h.@ & a D.6.b } b ] = - & + h.z.k.S.K.*+%+W.W.W.W.W.*+K.H.G.      ",
"                                                                  h.# % % % % % % % % # + . x.y.>+K.!+*+%+W..+.+W.W.Q.=+K.H.C.      ",
"                                                                            z.w.w.~+N.N.F.(+(+=+=+Q.%+W..+$+$+.+W.%+*+K.H.M.        ",
"                                                                            Y.I.I.^+#+#+`.)+.+$+.+.+.+$+-+-+$+W.W.Q.K.H.S.          ",
"                                                                            H.K.=+I.#+/+)+-+-+-+$+$+-+-+-+-+.+%+Q.,+]+              ",
"                                                                              H.]+Y.{+(+Q..+$+-+-+-+-+-+-+-+W.Q.,+K.                ",
"                                                                                H.Y.{+I.*+Q.W.$+-+-+-+-+-+.+Q.,+K.]+                ",
"                                                                                >+w.(+Z.)+.+.+-+-+$+$+-+$+;+*+K.]+                  ",
"                                                                                  7.7.#+P.J.$+$+$+.+$+.+W.Q.!+]+H.                  ",
"                                                                                  7.# L.T.U.`..+$+$+.+W.Q.!+]+H.                    ",
"                                                                                    # L.T.U.P.V.-+$+W.Q.!+]+H.H.                    ",
"                                                                                    # [+P.J.V.-+-+W.Q.!+]+H.H.                      ",
"                                                                                    L./+J.-+-+-+.+Q.,+,+!+]+                        ",
"                                                                                    ^+&+J.-+$+-+$+.+%+%+*+                          ",
"                                                                                    *+.+-+$+.+.+.+.+W.Q.                            ",
"                                                                                  K.W.-+-+-+.+W.W.W.Q.                              ",
"                                                                                  ,+.+-+-+.+.+W.W.*+K.                              ",
"                                                                                Y.I.W.$+$+%+*+!+K.{+y.                              ",
"                                                                                {+#+P.V.$+.+`.Z.4+% @                               ",
"                                                                              Y.^+U. +$+W.)+ + +T.{                                 ",
"                                                                                I.`.Z.I.{+I. + +W &                                 ",
"                                                                                (+{+(+c.c.^+[+U.T.#                                 ",
"                                                                                r r X Z r F.L.G - #                                 ",
"                                                                                1.=.M =.Z c.h.| 3                                   ",
"                                                                              d x K  .H t 6.&.. ,                                   ",
"                                                                              d <.J J ).;.o 4.                                      ",
"                                  o i         D R _.                        = *.b.K ].I !.R                                         ",
"                                B $.C         i D ~.u                   ( d d Z 9.=.].].2.+.                                        ",
"                                m n m         < i R -.            1.y y -.O w =.=.H ].].M                                           ",
"                              4 l U U         {.q S -.x y   A Q w H K }.!.|.K  .K J ].H                                             ",
"                              5 l U n n n p D V V _.}.N |.!.!.M K J ].i.i.J ].].].].K                                               ",
"                                T T $.$.$.p p p R ;.x }.}.}.2.K K J ].].].].].J ` K                                                 ",
"                                    i p p $.$.p D ~.Q _._...L K K  .I I I I K w u                                                   ",
"                                      i B m m m C i o q A Q u =.=.w w M M =.t                                                       ",
"                                                                                                                                    ",
"                                                                                                                                    "};
